<svg version="1.1" xmlns="http://www.w3.org/2000/svg" xmlns:xlink="http://www.w3.org/1999/xlink" width="201.73196" height="201.58629" viewBox="0,0,201.73196,201.58629"><g transform="translate(-138.90861,-78.98348)"><g data-paper-data="{&quot;isPaintingLayer&quot;:true}" fill="#66b6ff" fill-rule="nonzero" stroke="none" stroke-width="0" stroke-linecap="butt" stroke-linejoin="miter" stroke-miterlimit="10" stroke-dasharray="" stroke-dashoffset="0" style="mix-blend-mode: normal"><path d="M241.38738,280.56977h-101.87239v-201.58629h101.87239z"/><g><path d="M239.77967,280.48023v-200.94768c0,0 40.51336,-5.66382 73.01895,55.88611c30.72122,63.32879 27.76494,145.06157 27.76494,145.06157z"/><path d="M239.77671,280.49695h-100.79946c0,0 -2.84107,-80.78993 28.03362,-145.61113c31.76701,-61.2629 72.76584,-55.3676 72.76584,-55.3676z"/></g><g><path d="M240.34003,79.60363v198.42316c0,0 -40.22113,5.59265 -72.49225,-55.18401c-30.49963,-62.53317 -27.56467,-143.23915 -27.56467,-143.23915z"/><path d="M240.34296,79.58711h100.07237c0,0 2.82059,79.77497 -27.8314,143.78182c-31.53787,60.49326 -72.24096,54.67201 -72.24096,54.67201z"/></g></g></g></svg>