<svg version="1.1" xmlns="http://www.w3.org/2000/svg" xmlns:xlink="http://www.w3.org/1999/xlink" width="274.00001" height="205.59776" viewBox="0,0,274.00001,205.59776"><defs><radialGradient cx="240" cy="169" r="56.5" gradientUnits="userSpaceOnUse" id="color-1"><stop offset="0" stop-color="#669bff"/><stop offset="1" stop-color="#3f76ff"/></radialGradient><radialGradient cx="214.67873" cy="134.84613" r="5.71603" gradientUnits="userSpaceOnUse" id="color-2"><stop offset="0" stop-color="#669bff"/><stop offset="1" stop-color="#3f76ff"/></radialGradient><radialGradient cx="209.92359" cy="145.67695" r="6.61782" gradientTransform="translate(-146.00492,-876.72543) rotate(45) scale(3.48671,3.48671)" gradientUnits="userSpaceOnUse" id="color-3"><stop offset="0" stop-color="#66b6ff"/><stop offset="1" stop-color="#66ffb5"/></radialGradient><radialGradient cx="239.46868" cy="125.32487" r="6.88325" gradientTransform="translate(-790.60412,-452.62902) scale(3.48673,3.48673)" gradientUnits="userSpaceOnUse" id="color-4"><stop offset="0" stop-color="#66b6ff"/><stop offset="1" stop-color="#66ffb5"/></radialGradient><linearGradient x1="246.93162" y1="120.0427" x2="246.93162" y2="131.94498" gradientUnits="userSpaceOnUse" id="color-5"><stop offset="0" stop-color="#ff3db8"/><stop offset="1" stop-color="#99256e"/></linearGradient><radialGradient cx="225.06236" cy="168.16682" r="19.91782" gradientTransform="translate(-786.32727,-718.47566) scale(4.20726,4.20726)" gradientUnits="userSpaceOnUse" id="color-6"><stop offset="0" stop-color="#66b6ff"/><stop offset="1" stop-color="#66ffb5"/></radialGradient><radialGradient cx="269.74339" cy="201.2265" r="8.40265" gradientTransform="translate(261.8197,1346.56372) rotate(-135) scale(4.08457,4.08457)" gradientUnits="userSpaceOnUse" id="color-7"><stop offset="0" stop-color="#66b6ff"/><stop offset="1" stop-color="#66ffb5"/></radialGradient><linearGradient x1="267.75391" y1="210.31858" x2="260.56941" y2="203.13409" gradientUnits="userSpaceOnUse" id="color-8"><stop offset="0" stop-color="#3dff8e"/><stop offset="1" stop-color="#259955"/></linearGradient><radialGradient cx="238.72034" cy="212.31961" r="9.84304" gradientTransform="translate(896.42608,724.40072) rotate(-180) scale(3.48673,3.48673)" gradientUnits="userSpaceOnUse" id="color-9"><stop offset="0" stop-color="#66b6ff"/><stop offset="1" stop-color="#66ffb5"/></radialGradient><linearGradient x1="230.00926" y1="217.80142" x2="230.00926" y2="205.89914" gradientUnits="userSpaceOnUse" id="color-10"><stop offset="0" stop-color="#ffef3e"/><stop offset="1" stop-color="#9a9125"/></linearGradient><radialGradient cx="212.90253" cy="202.59111" r="7.18718" gradientTransform="translate(1044.06341,-39.36972) rotate(135) scale(3.48671,3.48671)" gradientUnits="userSpaceOnUse" id="color-11"><stop offset="0" stop-color="#66b6ff"/><stop offset="1" stop-color="#66ffb5"/></radialGradient><linearGradient x1="204.52667" y1="201.52525" x2="212.94285" y2="193.10907" gradientUnits="userSpaceOnUse" id="color-12"><stop offset="0" stop-color="#ff3db8"/><stop offset="1" stop-color="#99256e"/></linearGradient><radialGradient cx="284.18211" cy="158.35569" r="6.88325" gradientTransform="translate(-535.0362,974.45964) rotate(-90) scale(3.48673,3.48673)" gradientUnits="userSpaceOnUse" id="color-13"><stop offset="0" stop-color="#66b6ff"/><stop offset="1" stop-color="#66ffb5"/></radialGradient><radialGradient cx="272.95683" cy="140.29162" r="11.82722" gradientTransform="translate(-954.05778,313.3775) rotate(-45) scale(3.48671,3.48671)" gradientUnits="userSpaceOnUse" id="color-14"><stop offset="0" stop-color="#66b6ff"/><stop offset="1" stop-color="#66ffb5"/></radialGradient><linearGradient x1="281.76848" y1="140.62183" x2="273.35229" y2="149.03802" gradientUnits="userSpaceOnUse" id="color-15"><stop offset="0" stop-color="#ffef3e"/><stop offset="1" stop-color="#9a9125"/></linearGradient><linearGradient x1="230.00926" y1="217.80142" x2="230.00926" y2="205.89914" gradientUnits="userSpaceOnUse" id="color-16"><stop offset="0" stop-color="#ffef3e"/><stop offset="1" stop-color="#9a9125"/></linearGradient></defs><g transform="translate(-103,-77.20111)"><g data-paper-data="{&quot;isPaintingLayer&quot;:true}" fill-rule="nonzero" stroke-linejoin="miter" stroke-miterlimit="10" stroke-dasharray="" stroke-dashoffset="0" style="mix-blend-mode: normal"><path d="M109.12291,282.79888c-3.38159,0 -6.12291,-2.40652 -6.12291,-5.3751v-194.84756c0,-2.96859 2.74132,-5.3751 6.12291,-5.3751h261.75419c3.38159,0 6.12291,2.40652 6.12291,5.3751v194.84756c0,2.96859 -2.74132,5.3751 -6.12291,5.3751z" fill="#00d1a9" stroke="none" stroke-width="0" stroke-linecap="butt"/><text transform="translate(160.91003,99.76875) scale(0.5,0.5)" font-size="40" xml:space="preserve" fill="#000000" fill-rule="nonzero" stroke="none" stroke-width="1" stroke-linecap="butt" stroke-linejoin="miter" stroke-miterlimit="10" stroke-dasharray="" stroke-dashoffset="0" font-family="Sans Serif" font-weight="normal" text-anchor="start" style="mix-blend-mode: normal"><tspan x="0" dy="0">Quick rootate all</tspan></text><g><path d="M183.5,169c0,-31.20409 25.29591,-56.5 56.5,-56.5c31.20409,0 56.5,25.29591 56.5,56.5c0,31.20409 -25.29591,56.5 -56.5,56.5c-31.20409,0 -56.5,-25.29591 -56.5,-56.5z" fill="url(#color-1)" stroke="#000000" stroke-width="2" stroke-linecap="butt"/><g fill="none" stroke="#000000" stroke-width="2" stroke-linecap="round"><path d="M218.43657,116.94105l43.12686,104.1179"/><path d="M292.05889,190.56359l-104.11777,-43.12717"/><path d="M292.05895,147.43657l-104.1179,43.12686"/><path d="M261.56358,116.94111l-43.12717,104.11777"/></g><g><g stroke="#000000" stroke-width="0.5"><path d="M208.9627,134.84613c0,-3.15688 2.55916,-5.71603 5.71603,-5.71603c3.15688,0 5.71603,2.55916 5.71603,5.71603c0,3.15688 -2.55916,5.71603 -5.71603,5.71603c-3.15688,0 -5.71603,-2.55916 -5.71603,-5.71603z" fill="url(#color-2)" stroke-linecap="butt"/><path d="M216.86027,140.11288l-4.36309,-10.53348" fill="none" stroke-linecap="round"/><path d="M209.412,132.66458l10.53346,4.36312" fill="none" stroke-linecap="round"/><path d="M219.94547,132.66459l-10.53348,4.3631" fill="none" stroke-linecap="round"/><path d="M216.86029,129.5794l-4.36312,10.53346" fill="none" stroke-linecap="round"/></g><text transform="translate(207.41031,148.19055) rotate(-45) scale(0.2868,0.2868)" font-size="40" xml:space="preserve" fill="url(#color-3)" fill-rule="nonzero" stroke="none" stroke-width="1" stroke-linecap="butt" stroke-linejoin="miter" stroke-miterlimit="10" stroke-dasharray="" stroke-dashoffset="0" font-family="Sans Serif" font-weight="normal" text-anchor="start" style="mix-blend-mode: normal"><tspan x="0" dy="0">1</tspan></text></g><g stroke="none" stroke-linecap="butt"><text transform="translate(226.74687,129.81492) scale(0.2868,0.2868)" font-size="40" xml:space="preserve" fill="url(#color-4)" fill-rule="nonzero" stroke="none" stroke-width="1" stroke-linecap="butt" stroke-linejoin="miter" stroke-miterlimit="10" stroke-dasharray="" stroke-dashoffset="0" font-family="Sans Serif" font-weight="normal" text-anchor="start" style="mix-blend-mode: normal"><tspan x="0" dy="0">40</tspan></text><g><path d="M240.98047,125.99384c0,-3.28672 2.66442,-5.95114 5.95114,-5.95114c3.28672,0 5.95114,2.66442 5.95114,5.95114c0,3.28672 -2.66442,5.95114 -5.95114,5.95114c-3.28672,0 -5.95114,-2.66442 -5.95114,-5.95114z" fill="url(#color-5)" stroke-width="0"/><text transform="translate(243.22124,130.32087) scale(0.31279,0.31279)" font-size="40" xml:space="preserve" fill="#000000" fill-rule="nonzero" stroke="none" stroke-width="1" stroke-linecap="butt" stroke-linejoin="miter" stroke-miterlimit="10" stroke-dasharray="" stroke-dashoffset="0" font-family="Sans Serif" font-weight="normal" text-anchor="start" style="mix-blend-mode: normal"><tspan x="0" dy="0">$</tspan></text></g></g><text transform="translate(186.89766,170.77039) scale(0.23768,0.23768)" font-size="40" xml:space="preserve" fill="url(#color-6)" fill-rule="nonzero" stroke="none" stroke-width="1" stroke-linecap="butt" stroke-linejoin="miter" stroke-miterlimit="10" stroke-dasharray="" stroke-dashoffset="0" font-family="Sans Serif" font-weight="normal" text-anchor="start" style="mix-blend-mode: normal"><tspan x="0" dy="0">1. Runde</tspan></text><g stroke="none" stroke-linecap="butt"><text transform="translate(278.43783,187.78717) rotate(135) scale(0.24482,0.24482)" font-size="40" xml:space="preserve" fill="url(#color-7)" fill-rule="nonzero" stroke="none" stroke-width="1" stroke-linecap="butt" stroke-linejoin="miter" stroke-miterlimit="10" stroke-dasharray="" stroke-dashoffset="0" font-family="Sans Serif" font-weight="normal" text-anchor="start" style="mix-blend-mode: normal"><tspan x="0" dy="0">100</tspan></text><g><path d="M267.75391,203.13409c1.98394,1.98394 1.98394,5.20055 0,7.18449c-1.98394,1.98394 -5.20055,1.98394 -7.18449,0c-1.98394,-1.98394 -1.98394,-5.20055 0,-7.18449c1.98394,-1.98394 5.20055,-1.98394 7.18449,0z" fill="url(#color-8)" stroke-width="0"/><text transform="translate(263.78944,201.87477) rotate(135) scale(0.26701,0.26701)" font-size="40" xml:space="preserve" fill="#000000" fill-rule="nonzero" stroke="none" stroke-width="1" stroke-linecap="butt" stroke-linejoin="miter" stroke-miterlimit="10" stroke-dasharray="" stroke-dashoffset="0" font-family="Sans Serif" font-weight="normal" text-anchor="start" style="mix-blend-mode: normal"><tspan x="0" dy="0">$</tspan></text></g></g><text transform="translate(257.09682,207.7596) rotate(-180) scale(0.2868,0.2868)" font-size="40" xml:space="preserve" fill="url(#color-9)" fill-rule="nonzero" stroke="none" stroke-width="1" stroke-linecap="butt" stroke-linejoin="miter" stroke-miterlimit="10" stroke-dasharray="" stroke-dashoffset="0" font-family="Sans Serif" font-weight="normal" text-anchor="start" style="mix-blend-mode: normal"><tspan x="0" dy="0">100</tspan></text><g stroke="none" stroke-linecap="butt"><path d="M235.9604,211.85028c0,3.28672 -2.66442,5.95114 -5.95114,5.95114c-3.28672,0 -5.95114,-2.66442 -5.95114,-5.95114c0,-3.28672 2.66442,-5.95114 5.95114,-5.95114c3.28672,0 5.95114,2.66442 5.95114,5.95114z" fill="url(#color-10)" stroke-width="0"/><text transform="translate(233.64793,207.52325) rotate(-180) scale(0.31279,0.31279)" font-size="40" xml:space="preserve" fill="#000000" fill-rule="nonzero" stroke="none" stroke-width="1" stroke-linecap="butt" stroke-linejoin="miter" stroke-miterlimit="10" stroke-dasharray="" stroke-dashoffset="0" font-family="Sans Serif" font-weight="normal" text-anchor="start" style="mix-blend-mode: normal"><tspan x="0" dy="0">$</tspan></text></g><text transform="translate(219.72087,203.75247) rotate(-135) scale(0.2868,0.2868)" font-size="40" xml:space="preserve" fill="url(#color-11)" fill-rule="nonzero" stroke="none" stroke-width="1" stroke-linecap="butt" stroke-linejoin="miter" stroke-miterlimit="10" stroke-dasharray="" stroke-dashoffset="0" font-family="Sans Serif" font-weight="normal" text-anchor="start" style="mix-blend-mode: normal"><tspan x="0" dy="0">1</tspan></text><g stroke="none" stroke-linecap="butt"><path d="M212.94285,201.52525c-2.32406,2.32406 -6.09212,2.32406 -8.41618,0c-2.32406,-2.32406 -2.32406,-6.09212 0,-8.41619c2.32406,-2.32406 6.09212,-2.32406 8.41618,0c2.32406,2.32406 2.32406,6.09212 0,8.41619z" fill="url(#color-12)" stroke-width="0"/><text transform="translate(214.41806,196.88112) rotate(-135) scale(0.31279,0.31279)" font-size="40" xml:space="preserve" fill="#000000" fill-rule="nonzero" stroke="none" stroke-width="1" stroke-linecap="butt" stroke-linejoin="miter" stroke-miterlimit="10" stroke-dasharray="" stroke-dashoffset="0" font-family="Sans Serif" font-weight="normal" text-anchor="start" style="mix-blend-mode: normal"><tspan x="0" dy="0">$</tspan></text></g><text transform="translate(279.477,153.44947) rotate(90) scale(0.2868,0.2868)" font-size="40" xml:space="preserve" fill="url(#color-13)" fill-rule="nonzero" stroke="none" stroke-width="1" stroke-linecap="butt" stroke-linejoin="miter" stroke-miterlimit="10" stroke-dasharray="" stroke-dashoffset="0" font-family="Sans Serif" font-weight="normal" text-anchor="start" style="mix-blend-mode: normal"><tspan x="0" dy="0">1</tspan></text><text transform="translate(257.03661,129.93034) rotate(45) scale(0.2868,0.2868)" font-size="40" xml:space="preserve" fill="url(#color-14)" fill-rule="nonzero" stroke="none" stroke-width="1" stroke-linecap="butt" stroke-linejoin="miter" stroke-miterlimit="10" stroke-dasharray="" stroke-dashoffset="0" font-family="Sans Serif" font-weight="normal" text-anchor="start" style="mix-blend-mode: normal"><tspan x="0" dy="0">200</tspan></text><g stroke="none" stroke-linecap="butt"><path d="M273.35229,140.62183c2.32407,-2.32406 6.09212,-2.32406 8.41618,0c2.32407,2.32407 2.32407,6.09212 0,8.41619c-2.32407,2.32406 -6.09212,2.32406 -8.41618,0c-2.32407,-2.32406 -2.32407,-6.09212 0,-8.41619z" fill="url(#color-15)" stroke-width="0"/><text transform="translate(271.92778,145.31666) rotate(45) scale(0.31279,0.31279)" font-size="40" xml:space="preserve" fill="#000000" fill-rule="nonzero" stroke="none" stroke-width="1" stroke-linecap="butt" stroke-linejoin="miter" stroke-miterlimit="10" stroke-dasharray="" stroke-dashoffset="0" font-family="Sans Serif" font-weight="normal" text-anchor="start" style="mix-blend-mode: normal"><tspan x="0" dy="0">$</tspan></text></g><g stroke="none" stroke-linecap="butt"><path d="M235.9604,211.85028c0,3.28672 -2.66442,5.95114 -5.95114,5.95114c-3.28672,0 -5.95114,-2.66442 -5.95114,-5.95114c0,-3.28672 2.66442,-5.95114 5.95114,-5.95114c3.28672,0 5.95114,2.66442 5.95114,5.95114z" fill="url(#color-16)" stroke-width="0"/><text transform="translate(233.64793,207.52325) rotate(-180) scale(0.31279,0.31279)" font-size="40" xml:space="preserve" fill="#000000" fill-rule="nonzero" stroke="none" stroke-width="1" stroke-linecap="butt" stroke-linejoin="miter" stroke-miterlimit="10" stroke-dasharray="" stroke-dashoffset="0" font-family="Sans Serif" font-weight="normal" text-anchor="start" style="mix-blend-mode: normal"><tspan x="0" dy="0">$</tspan></text></g><g stroke="none" stroke-width="0" stroke-linecap="butt"><path d="M287.89031,162.93316l1.20933,-1.20933l1.08369,1.08369l-1.20933,1.20933z" fill="#3ed3f7"/><path d="M288.37895,169.52984l1.20933,-1.20933l1.08368,1.08369l-1.20933,1.20933z" fill="#f74848"/><path d="M287.64599,170.81808l1.20933,-1.20933l1.08368,1.08369l-1.20933,1.20933z" fill="#3ed3f7"/><path d="M287.80147,168.28602l1.20933,-1.20933l1.08368,1.08369l-1.20933,1.20933z" fill="#3ed3f7"/><path d="M287.69041,167.28652l1.20933,-1.20933l1.08368,1.08369l-1.20933,1.20933z" fill="#f74848"/><path d="M287.82368,165.24311l1.20933,-1.20933l1.08369,1.08369l-1.20933,1.20933z" fill="#3ed3f7"/><path d="M288.82318,166.2426l1.20933,-1.20933l1.08368,1.08369l-1.20933,1.20933z" fill="#f74848"/><path d="M288.40116,167.81959l1.20933,-1.20933l1.08368,1.08369l-1.20933,1.20933z" fill="#3ef744"/><path d="M288.11242,172.68381l1.20933,-1.20933l1.08368,1.08369l-1.20933,1.20933z" fill="#3ed3f7"/><path d="M288.22348,173.92763l1.20933,-1.20933l1.08368,1.08369l-1.20933,1.20933z" fill="#3ed3f7"/><path d="M288.00137,171.72873l1.20933,-1.20933l1.08368,1.08369l-1.20933,1.20933z" fill="#3ed3f7"/><path d="M288.97865,175.26029l1.20933,-1.20933l1.08368,1.08369l-1.20933,1.20933z" fill="#f74848"/><path d="M289.37845,176.50411l1.20933,-1.20933l1.08368,1.08369l-1.20933,1.20933z" fill="#3ed3f7"/><path d="M288.82318,177.59245l1.20933,-1.20933l1.08368,1.08369l-1.20933,1.20933z" fill="#f7f13e"/><path d="M287.95694,176.4819l1.20933,-1.20933l1.08368,1.08369l-1.20933,1.20933z" fill="#3ef744"/><path d="M288.02358,178.92511l1.20933,-1.20933l1.08368,1.08369l-1.20933,1.20933z" fill="#f74848"/><path d="M288.55664,179.74691l1.20933,-1.20933l1.08368,1.08369l-1.20933,1.20933z" fill="#3ef744"/><path d="M288.33453,180.45767l1.20933,-1.20933l1.08369,1.08369l-1.20933,1.20933z" fill="#f74848"/><path d="M287.97916,163.59949l1.20933,-1.20933l1.08368,1.08369l-1.20933,1.20933z" fill="#f74848"/><path d="M288.29011,164.68783l1.20933,-1.20933l1.08368,1.08369l-1.20933,1.20933z" fill="#f7f13e"/><path d="M287.6682,162.33346l1.20933,-1.20933l1.08368,1.08369l-1.20933,1.20933z" fill="#f74848"/><path d="M288.35674,170.92913l1.20933,-1.20933l1.08368,1.08369l-1.20933,1.20933z" fill="#f7f13e"/><path d="M289.15634,172.92813l1.20933,-1.20933l1.08368,1.08369l-1.20933,1.20933z" fill="#f74848"/><path d="M289.0675,171.61768l1.20933,-1.20933l1.08368,1.08369l-1.20933,1.20933z" fill="#f74848"/><path d="M288.73433,171.12903l1.20933,-1.20933l1.08368,1.08369l-1.20933,1.20933z" fill="#f7f13e"/><path d="M288.77875,171.0624l1.20933,-1.20933l1.08368,1.08369l-1.20933,1.20933z" fill="#f7f13e"/><path d="M288.60106,173.99426l1.20933,-1.20933l1.08368,1.08369l-1.20933,1.20933z" fill="#3ef744"/><path d="M289.11192,172.28401l1.20933,-1.20933l1.08368,1.08369l-1.20933,1.20933z" fill="#3ef744"/><path d="M276.9373,161.2434c0,-0.24794 0.36566,-0.44894 0.81673,-0.44894h10.62304c0.45107,0 0.81673,0.201 0.81673,0.44894v20.38535c0,0.24794 -0.36566,0.44894 -0.81673,0.44894h-10.62304c-0.45107,0 -0.81673,-0.201 -0.81673,-0.44894z" fill="#feff72"/><g fill="#ffffff"><path d="M279.51542,170.23015l4.38074,0.46761v1.46435l-4.38074,0.47991z"/><path d="M284.60988,169.4303c1.10777,0 2.00579,0.89802 2.00579,2.00579c0,1.10777 -0.89802,2.00579 -2.00579,2.00579c-1.10777,0 -2.00579,-0.89802 -2.00579,-2.00579c0,-1.10777 0.89802,-2.00579 2.00579,-2.00579z"/></g></g></g></g></g></svg>