<svg version="1.1" xmlns="http://www.w3.org/2000/svg" xmlns:xlink="http://www.w3.org/1999/xlink" width="199.35613" height="200.01949" viewBox="0,0,199.35613,200.01949"><g transform="translate(-140.3981,-79.72645)"><g data-paper-data="{&quot;isPaintingLayer&quot;:true}" fill="#66b6ff" fill-rule="nonzero" stroke="none" stroke-width="0" stroke-linecap="butt" stroke-linejoin="miter" stroke-miterlimit="10" stroke-dasharray="" stroke-dashoffset="0" style="mix-blend-mode: normal"><g><path d="M140.41463,179.4774h198.71631c0,0 5.60092,40.06349 -55.26554,72.20813c-62.62557,30.38009 -143.45077,27.45663 -143.45077,27.45663z"/><path d="M140.3981,179.47448v-99.68016c0,0 79.89282,-2.80953 143.99423,27.72232c60.58263,31.41426 54.75278,71.95783 54.75278,71.95783z"/></g><g><path d="M339.73779,179.99498h-197.64548c0,0 -5.57073,-40.06349 54.96773,-72.20813c62.28809,-30.38009 142.67775,-27.45663 142.67775,-27.45663z"/><path d="M339.75423,179.9979v99.68016c0,0 -79.4623,2.80953 -143.21829,-27.72232c-60.25617,-31.41426 -54.45773,-71.95783 -54.45773,-71.95783z"/></g></g></g></svg>