<svg version="1.1" xmlns="http://www.w3.org/2000/svg" xmlns:xlink="http://www.w3.org/1999/xlink" width="199" height="199" viewBox="0,0,199,199"><defs><radialGradient cx="240" cy="180" r="98.5" gradientUnits="userSpaceOnUse" id="color-1"><stop offset="0" stop-color="#669bff"/><stop offset="1" stop-color="#3f76ff"/></radialGradient><radialGradient cx="195.85584" cy="120.45742" r="9.96512" gradientUnits="userSpaceOnUse" id="color-2"><stop offset="0" stop-color="#669bff"/><stop offset="1" stop-color="#3f76ff"/></radialGradient><radialGradient cx="187.5659" cy="139.33946" r="11.53726" gradientTransform="translate(-55.8088,-462.31479) rotate(45) scale(2,2)" gradientUnits="userSpaceOnUse" id="color-3"><stop offset="0" stop-color="#66b6ff"/><stop offset="1" stop-color="#66ffb5"/></radialGradient><radialGradient cx="239.07371" cy="103.8584" r="12" gradientTransform="translate(-433.78996,-223.37238) scale(2,2)" gradientUnits="userSpaceOnUse" id="color-4"><stop offset="0" stop-color="#66b6ff"/><stop offset="1" stop-color="#66ffb5"/></radialGradient><linearGradient x1="252.08432" y1="94.64966" x2="252.08432" y2="115.39966" gradientUnits="userSpaceOnUse" id="color-5"><stop offset="0" stop-color="#ff3db8"/><stop offset="1" stop-color="#99256e"/></linearGradient><radialGradient cx="213.95845" cy="178.54762" r="34.72402" gradientTransform="translate(-355.77708,-441.84289) scale(2.4133,2.4133)" gradientUnits="userSpaceOnUse" id="color-6"><stop offset="0" stop-color="#66b6ff"/><stop offset="1" stop-color="#66ffb5"/></radialGradient><radialGradient cx="291.85327" cy="236.18228" r="14.64885" gradientTransform="translate(156.1563,861.0857) rotate(-135) scale(2.34291,2.34291)" gradientUnits="userSpaceOnUse" id="color-7"><stop offset="0" stop-color="#66b6ff"/><stop offset="1" stop-color="#66ffb5"/></radialGradient><linearGradient x1="288.38513" y1="252.03328" x2="275.85995" y2="239.5081" gradientUnits="userSpaceOnUse" id="color-8"><stop offset="0" stop-color="#3dff8e"/><stop offset="1" stop-color="#259955"/></linearGradient><radialGradient cx="237.76908" cy="255.5218" r="17.15999" gradientTransform="translate(539.61192,495.14408) rotate(180) scale(2,2)" gradientUnits="userSpaceOnUse" id="color-9"><stop offset="0" stop-color="#66b6ff"/><stop offset="1" stop-color="#66ffb5"/></radialGradient><linearGradient x1="222.58251" y1="265.07859" x2="222.58251" y2="244.32859" gradientUnits="userSpaceOnUse" id="color-10"><stop offset="0" stop-color="#ffef3e"/><stop offset="1" stop-color="#9a9125"/></linearGradient><radialGradient cx="192.75927" cy="238.56149" r="12.52987" gradientTransform="translate(629.65353,50.82689) rotate(135) scale(2,2)" gradientUnits="userSpaceOnUse" id="color-11"><stop offset="0" stop-color="#66b6ff"/><stop offset="1" stop-color="#66ffb5"/></radialGradient><linearGradient x1="178.15711" y1="236.70332" x2="192.82957" y2="222.03085" gradientUnits="userSpaceOnUse" id="color-12"><stop offset="0" stop-color="#ff3db8"/><stop offset="1" stop-color="#99256e"/></linearGradient><radialGradient cx="317.02544" cy="161.44311" r="12" gradientTransform="translate(-305.77956,617.64548) rotate(-90) scale(2,2)" gradientUnits="userSpaceOnUse" id="color-13"><stop offset="0" stop-color="#66b6ff"/><stop offset="1" stop-color="#66ffb5"/></radialGradient><radialGradient cx="297.45571" cy="129.95088" r="20.61913" gradientTransform="translate(-539.64749,223.18213) rotate(-45) scale(2,2)" gradientUnits="userSpaceOnUse" id="color-14"><stop offset="0" stop-color="#66b6ff"/><stop offset="1" stop-color="#66ffb5"/></radialGradient><linearGradient x1="312.81762" y1="130.52656" x2="298.14515" y2="145.19902" gradientUnits="userSpaceOnUse" id="color-15"><stop offset="0" stop-color="#ffef3e"/><stop offset="1" stop-color="#9a9125"/></linearGradient><linearGradient x1="222.58251" y1="265.07859" x2="222.58251" y2="244.32859" gradientUnits="userSpaceOnUse" id="color-16"><stop offset="0" stop-color="#ffef3e"/><stop offset="1" stop-color="#9a9125"/></linearGradient></defs><g transform="translate(-140.5,-80.5)"><g data-paper-data="{&quot;isPaintingLayer&quot;:true}" fill-rule="nonzero" stroke-linejoin="miter" stroke-miterlimit="10" stroke-dasharray="" stroke-dashoffset="0" style="mix-blend-mode: normal"><path d="M141.5,180c0,-54.40005 44.09995,-98.5 98.5,-98.5c54.40005,0 98.5,44.09995 98.5,98.5c0,54.40005 -44.09995,98.5 -98.5,98.5c-54.40005,0 -98.5,-44.09995 -98.5,-98.5z" fill="url(#color-1)" stroke="#000000" stroke-width="2" stroke-linecap="butt"/><g fill="none" stroke="#000000" stroke-width="2" stroke-linecap="round"><path d="M202.40711,89.24236l75.18577,181.51527"/><path d="M330.75753,217.59316l-181.51505,-75.18631"/><path d="M330.75763,142.40712l-181.51527,75.18577"/><path d="M277.59315,89.24247l-75.18631,181.51505"/></g><g><g stroke="#000000" stroke-width="0.5"><path d="M185.89072,120.45742c0,-5.50358 4.46154,-9.96512 9.96512,-9.96512c5.50358,0 9.96512,4.46154 9.96512,9.96512c0,5.50358 -4.46154,9.96512 -9.96512,9.96512c-5.50358,0 -9.96512,-4.46154 -9.96512,-9.96512z" fill="url(#color-2)" stroke-linecap="butt"/><path d="M199.65906,129.63927l-7.60645,-18.36368" fill="none" stroke-linecap="round"/><path d="M186.67402,116.65418l18.36365,7.6065" fill="none" stroke-linecap="round"/><path d="M205.03768,116.65419l-18.36368,7.60646" fill="none" stroke-linecap="round"/><path d="M199.65909,111.27559l-7.6065,18.36365" fill="none" stroke-linecap="round"/></g><text transform="translate(183.18435,143.72157) rotate(-45) scale(0.5,0.5)" font-size="40" xml:space="preserve" fill="url(#color-3)" fill-rule="nonzero" stroke="none" stroke-width="1" stroke-linecap="butt" stroke-linejoin="miter" stroke-miterlimit="10" stroke-dasharray="" stroke-dashoffset="0" font-family="Sans Serif" font-weight="normal" text-anchor="start" style="mix-blend-mode: normal"><tspan x="0" dy="0">1</tspan></text></g><g stroke="none" stroke-linecap="butt"><text transform="translate(216.89498,111.68619) scale(0.5,0.5)" font-size="40" xml:space="preserve" fill="url(#color-4)" fill-rule="nonzero" stroke="none" stroke-width="1" stroke-linecap="butt" stroke-linejoin="miter" stroke-miterlimit="10" stroke-dasharray="" stroke-dashoffset="0" font-family="Sans Serif" font-weight="normal" text-anchor="start" style="mix-blend-mode: normal"><tspan x="0" dy="0">40</tspan></text><g><path d="M241.70932,105.02466c0,-5.72995 4.64505,-10.375 10.375,-10.375c5.72995,0 10.375,4.64505 10.375,10.375c0,5.72995 -4.64505,10.375 -10.375,10.375c-5.72995,0 -10.375,-4.64505 -10.375,-10.375z" fill="url(#color-5)" stroke-width="0"/><text transform="translate(245.61579,112.56824) scale(0.5453,0.5453)" font-size="40" xml:space="preserve" fill="#000000" fill-rule="nonzero" stroke="none" stroke-width="1" stroke-linecap="butt" stroke-linejoin="miter" stroke-miterlimit="10" stroke-dasharray="" stroke-dashoffset="0" font-family="Sans Serif" font-weight="normal" text-anchor="start" style="mix-blend-mode: normal"><tspan x="0" dy="0">$</tspan></text></g></g><text transform="translate(147.42335,183.08644) scale(0.41437,0.41437)" font-size="40" xml:space="preserve" fill="url(#color-6)" fill-rule="nonzero" stroke="none" stroke-width="1" stroke-linecap="butt" stroke-linejoin="miter" stroke-miterlimit="10" stroke-dasharray="" stroke-dashoffset="0" font-family="Sans Serif" font-weight="normal" text-anchor="start" style="mix-blend-mode: normal"><tspan x="0" dy="0">1. Runde</tspan></text><g stroke="none" stroke-linecap="butt"><text transform="translate(307.01108,212.75285) rotate(135) scale(0.42682,0.42682)" font-size="40" xml:space="preserve" fill="url(#color-7)" fill-rule="nonzero" stroke="none" stroke-width="1" stroke-linecap="butt" stroke-linejoin="miter" stroke-miterlimit="10" stroke-dasharray="" stroke-dashoffset="0" font-family="Sans Serif" font-weight="normal" text-anchor="start" style="mix-blend-mode: normal"><tspan x="0" dy="0">100</tspan></text><g><path d="M288.38513,239.5081c3.45873,3.45873 3.45873,9.06645 0,12.52518c-3.45873,3.45873 -9.06645,3.45873 -12.52518,0c-3.45873,-3.45873 -3.45873,-9.06645 0,-12.52518c3.45873,-3.45873 9.06645,-3.45873 12.52518,0z" fill="url(#color-8)" stroke-width="0"/><text transform="translate(281.47362,237.31266) rotate(135) scale(0.4655,0.4655)" font-size="40" xml:space="preserve" fill="#000000" fill-rule="nonzero" stroke="none" stroke-width="1" stroke-linecap="butt" stroke-linejoin="miter" stroke-miterlimit="10" stroke-dasharray="" stroke-dashoffset="0" font-family="Sans Serif" font-weight="normal" text-anchor="start" style="mix-blend-mode: normal"><tspan x="0" dy="0">$</tspan></text></g></g><text transform="translate(269.80596,247.57204) rotate(-180) scale(0.5,0.5)" font-size="40" xml:space="preserve" fill="url(#color-9)" fill-rule="nonzero" stroke="none" stroke-width="1" stroke-linecap="butt" stroke-linejoin="miter" stroke-miterlimit="10" stroke-dasharray="" stroke-dashoffset="0" font-family="Sans Serif" font-weight="normal" text-anchor="start" style="mix-blend-mode: normal"><tspan x="0" dy="0">100</tspan></text><g stroke="none" stroke-linecap="butt"><path d="M232.95751,254.70359c0,5.72995 -4.64505,10.375 -10.375,10.375c-5.72995,0 -10.375,-4.64505 -10.375,-10.375c0,-5.72995 4.64505,-10.375 10.375,-10.375c5.72995,0 10.375,4.64505 10.375,10.375z" fill="url(#color-10)" stroke-width="0"/><text transform="translate(228.92604,247.16001) rotate(-180) scale(0.5453,0.5453)" font-size="40" xml:space="preserve" fill="#000000" fill-rule="nonzero" stroke="none" stroke-width="1" stroke-linecap="butt" stroke-linejoin="miter" stroke-miterlimit="10" stroke-dasharray="" stroke-dashoffset="0" font-family="Sans Serif" font-weight="normal" text-anchor="start" style="mix-blend-mode: normal"><tspan x="0" dy="0">$</tspan></text></g><text transform="translate(204.64612,240.58616) rotate(-135) scale(0.5,0.5)" font-size="40" xml:space="preserve" fill="url(#color-11)" fill-rule="nonzero" stroke="none" stroke-width="1" stroke-linecap="butt" stroke-linejoin="miter" stroke-miterlimit="10" stroke-dasharray="" stroke-dashoffset="0" font-family="Sans Serif" font-weight="normal" text-anchor="start" style="mix-blend-mode: normal"><tspan x="0" dy="0">1</tspan></text><g stroke="none" stroke-linecap="butt"><path d="M192.82957,236.70332c-4.05168,4.05168 -10.62078,4.05168 -14.67246,0c-4.05168,-4.05168 -4.05168,-10.62078 0,-14.67247c4.05168,-4.05168 10.62078,-4.05168 14.67246,0c4.05168,4.05168 4.05168,10.62078 0,14.67247z" fill="url(#color-12)" stroke-width="0"/><text transform="translate(195.4014,228.60691) rotate(-135) scale(0.5453,0.5453)" font-size="40" xml:space="preserve" fill="#000000" fill-rule="nonzero" stroke="none" stroke-width="1" stroke-linecap="butt" stroke-linejoin="miter" stroke-miterlimit="10" stroke-dasharray="" stroke-dashoffset="0" font-family="Sans Serif" font-weight="normal" text-anchor="start" style="mix-blend-mode: normal"><tspan x="0" dy="0">$</tspan></text></g><text transform="translate(308.82274,152.88978) rotate(90) scale(0.5,0.5)" font-size="40" xml:space="preserve" fill="url(#color-13)" fill-rule="nonzero" stroke="none" stroke-width="1" stroke-linecap="butt" stroke-linejoin="miter" stroke-miterlimit="10" stroke-dasharray="" stroke-dashoffset="0" font-family="Sans Serif" font-weight="normal" text-anchor="start" style="mix-blend-mode: normal"><tspan x="0" dy="0">1</tspan></text><text transform="translate(269.701,111.8874) rotate(45) scale(0.5,0.5)" font-size="40" xml:space="preserve" fill="url(#color-14)" fill-rule="nonzero" stroke="none" stroke-width="1" stroke-linecap="butt" stroke-linejoin="miter" stroke-miterlimit="10" stroke-dasharray="" stroke-dashoffset="0" font-family="Sans Serif" font-weight="normal" text-anchor="start" style="mix-blend-mode: normal"><tspan x="0" dy="0">200</tspan></text><g stroke="none" stroke-linecap="butt"><path d="M298.14515,130.52656c4.05169,-4.05168 10.62078,-4.05168 14.67246,0c4.05169,4.05169 4.05169,10.62078 0,14.67247c-4.05169,4.05168 -10.62078,4.05168 -14.67246,0c-4.05169,-4.05168 -4.05169,-10.62078 0,-14.67247z" fill="url(#color-15)" stroke-width="0"/><text transform="translate(295.66171,138.71135) rotate(45) scale(0.5453,0.5453)" font-size="40" xml:space="preserve" fill="#000000" fill-rule="nonzero" stroke="none" stroke-width="1" stroke-linecap="butt" stroke-linejoin="miter" stroke-miterlimit="10" stroke-dasharray="" stroke-dashoffset="0" font-family="Sans Serif" font-weight="normal" text-anchor="start" style="mix-blend-mode: normal"><tspan x="0" dy="0">$</tspan></text></g><g stroke="none" stroke-linecap="butt"><path d="M232.95751,254.70359c0,5.72995 -4.64505,10.375 -10.375,10.375c-5.72995,0 -10.375,-4.64505 -10.375,-10.375c0,-5.72995 4.64505,-10.375 10.375,-10.375c5.72995,0 10.375,4.64505 10.375,10.375z" fill="url(#color-16)" stroke-width="0"/><text transform="translate(228.92604,247.16001) rotate(-180) scale(0.5453,0.5453)" font-size="40" xml:space="preserve" fill="#000000" fill-rule="nonzero" stroke="none" stroke-width="1" stroke-linecap="butt" stroke-linejoin="miter" stroke-miterlimit="10" stroke-dasharray="" stroke-dashoffset="0" font-family="Sans Serif" font-weight="normal" text-anchor="start" style="mix-blend-mode: normal"><tspan x="0" dy="0">$</tspan></text></g><g stroke="none" stroke-width="0" stroke-linecap="butt"><path d="M323.49019,169.4233l2.1083,-2.1083l1.88926,1.88926l-2.1083,2.1083z" fill="#3ed3f7"/><path d="M324.34207,180.9237l2.1083,-2.1083l1.88925,1.88926l-2.1083,2.1083z" fill="#f74848"/><path d="M323.06425,183.16957l2.1083,-2.1083l1.88925,1.88926l-2.1083,2.1083z" fill="#3ed3f7"/><path d="M323.3353,178.75527l2.1083,-2.1083l1.88925,1.88926l-2.1083,2.1083z" fill="#3ed3f7"/><path d="M323.14169,177.01279l2.1083,-2.1083l1.88925,1.88926l-2.1083,2.1083z" fill="#f74848"/><path d="M323.37402,173.45038l2.1083,-2.1083l1.88926,1.88926l-2.1083,2.1083z" fill="#3ed3f7"/><path d="M325.11651,175.19286l2.1083,-2.1083l1.88925,1.88926l-2.1083,2.1083z" fill="#f74848"/><path d="M324.38079,177.94212l2.1083,-2.1083l1.88925,1.88926l-2.1083,2.1083z" fill="#3ef744"/><path d="M323.87741,186.42221l2.1083,-2.1083l1.88925,1.88926l-2.1083,2.1083z" fill="#3ed3f7"/><path d="M324.07102,188.59064l2.1083,-2.1083l1.88925,1.88926l-2.1083,2.1083z" fill="#3ed3f7"/><path d="M323.6838,184.75717l2.1083,-2.1083l1.88925,1.88926l-2.1083,2.1083z" fill="#3ed3f7"/><path d="M325.38756,190.91395l2.1083,-2.1083l1.88925,1.88926l-2.1083,2.1083z" fill="#f74848"/><path d="M326.08456,193.08238l2.1083,-2.1083l1.88925,1.88926l-2.1083,2.1083z" fill="#3ed3f7"/><path d="M325.11651,194.97975l2.1083,-2.1083l1.88925,1.88926l-2.1083,2.1083z" fill="#f7f13e"/><path d="M323.60635,193.04366l2.1083,-2.1083l1.88925,1.88926l-2.1083,2.1083z" fill="#3ef744"/><path d="M323.72252,197.30306l2.1083,-2.1083l1.88925,1.88926l-2.1083,2.1083z" fill="#f74848"/><path d="M324.65185,198.73577l2.1083,-2.1083l1.88925,1.88926l-2.1083,2.1083z" fill="#3ef744"/><path d="M324.26463,199.97487l2.1083,-2.1083l1.88926,1.88926l-2.1083,2.1083z" fill="#f74848"/><path d="M323.64508,170.58495l2.1083,-2.1083l1.88925,1.88926l-2.1083,2.1083z" fill="#f74848"/><path d="M324.18719,172.48233l2.1083,-2.1083l1.88925,1.88926l-2.1083,2.1083z" fill="#f7f13e"/><path d="M323.10297,168.37781l2.1083,-2.1083l1.88925,1.88926l-2.1083,2.1083z" fill="#f74848"/><path d="M324.30335,183.36318l2.1083,-2.1083l1.88925,1.88926l-2.1083,2.1083z" fill="#f7f13e"/><path d="M325.69734,186.84815l2.1083,-2.1083l1.88925,1.88926l-2.1083,2.1083z" fill="#f74848"/><path d="M325.54245,184.56356l2.1083,-2.1083l1.88925,1.88926l-2.1083,2.1083z" fill="#f74848"/><path d="M324.96162,183.71168l2.1083,-2.1083l1.88925,1.88926l-2.1083,2.1083z" fill="#f7f13e"/><path d="M325.03906,183.59551l2.1083,-2.1083l1.88925,1.88926l-2.1083,2.1083z" fill="#f7f13e"/><path d="M324.72929,188.7068l2.1083,-2.1083l1.88925,1.88926l-2.1083,2.1083z" fill="#3ef744"/><path d="M325.61989,185.72522l2.1083,-2.1083l1.88925,1.88926l-2.1083,2.1083z" fill="#3ef744"/><path d="M304.39511,166.47744c0,-0.43225 0.63748,-0.78266 1.42385,-0.78266l18.51981,0c0.78637,0 1.42385,0.35041 1.42385,0.78266l0,35.53907c0,0.43225 -0.63748,0.78266 -1.42385,0.78266h-18.51981c-0.78637,0 -1.42385,-0.35041 -1.42385,-0.78266z" fill="#feff72"/><g fill="#ffffff"><path d="M308.88972,182.1446l7.63722,0.81521v2.55289l-7.63722,0.83666z"/><path d="M317.7712,180.75017c1.93124,0 3.49682,1.56558 3.49682,3.49682c0,1.93124 -1.56558,3.49682 -3.49682,3.49682c-1.93124,0 -3.49682,-1.56558 -3.49682,-3.49682c0,-1.93124 1.56558,-3.49682 3.49682,-3.49682z"/></g></g></g></g></svg>