<svg version="1.1" xmlns="http://www.w3.org/2000/svg" xmlns:xlink="http://www.w3.org/1999/xlink" width="201.41713" height="201.80266" viewBox="0,0,201.41713,201.80266"><g transform="translate(-138.94037,-78.01976)"><g data-paper-data="{&quot;isPaintingLayer&quot;:true}" fill="#66b6ff" fill-rule="nonzero" stroke="none" stroke-width="0" stroke-linecap="butt" stroke-linejoin="miter" stroke-miterlimit="10" stroke-dasharray="" stroke-dashoffset="0" style="mix-blend-mode: normal"><path d="M138.94037,180.42121v-101.58629h201.02016v101.58629z"/><path d="M139.02966,178.97073h200.38335c0,0 5.64791,40.39958 -55.72917,72.81388c-63.15093,30.63495 -144.65418,27.68696 -144.65418,27.68696z"/><path d="M139.01298,179.23392v-100.51637c0,0 80.56304,-2.8331 145.2022,27.95488c61.09086,31.67779 55.21211,72.56149 55.21211,72.56149z"/><g><path d="M340.34085,178.91601h-199.93489c0,0 -5.63526,-40.52756 55.60445,-73.04454c63.00959,-30.73199 144.33044,-27.77467 144.33044,-27.77467z"/><path d="M340.35749,178.91895v100.8348c0,0 -80.38274,2.84208 -144.87724,-28.04344c-60.95414,-31.77814 -55.08853,-72.79135 -55.08853,-72.79135z"/></g></g></g></svg>