<svg version="1.1" xmlns="http://www.w3.org/2000/svg" xmlns:xlink="http://www.w3.org/1999/xlink" width="201.61547" height="200.02036" viewBox="0,0,201.61547,200.02036"><g transform="translate(-138.97117,-80.02294)"><g data-paper-data="{&quot;isPaintingLayer&quot;:true}" fill="#66b6ff" fill-rule="nonzero" stroke="none" stroke-width="0" stroke-linecap="butt" stroke-linejoin="miter" stroke-miterlimit="10" stroke-dasharray="" stroke-dashoffset="0" style="mix-blend-mode: normal"><g><path d="M239.27447,80.03956v199.83677c0,0 -40.28939,5.6325 -72.61528,-55.57715c-30.55139,-62.97868 -27.61144,-144.25962 -27.61144,-144.25962z"/><path d="M239.27741,80.02294h100.24221c0,0 2.82537,80.3433 -27.87863,144.80614c-31.59139,60.92423 -72.36356,55.0615 -72.36356,55.0615z"/></g><g><path d="M240.28334,280.01844v-198.7599c0,0 40.28939,-5.60214 72.61528,55.27767c30.55139,62.6393 27.61144,143.48224 27.61144,143.48224z"/><path d="M240.2804,280.03497h-100.24221c0,0 -2.82537,-79.91035 27.87863,-144.02583c31.59139,-60.59592 72.36356,-54.76479 72.36356,-54.76479z"/></g></g></g></svg>