<svg version="1.1" xmlns="http://www.w3.org/2000/svg" xmlns:xlink="http://www.w3.org/1999/xlink" width="209.56723" height="34.85556" viewBox="0,0,209.56723,34.85556"><g transform="translate(82.81724,-314.42382)"><g data-paper-data="{&quot;isPaintingLayer&quot;:true}" fill-rule="nonzero" stroke-linecap="butt" stroke-linejoin="miter" stroke-miterlimit="10" stroke-dasharray="" stroke-dashoffset="0" style="mix-blend-mode: normal"><path d="M-82.81724,349.27938v-33.03818h99.4654v33.03818z" fill="#000000" stroke="none" stroke-width="0"/><path d="M11.75,349.25002v-33h115v33zM19.24675,330.19359l0.0719,9.44776l81.69589,-0.1353c0,0 0.04077,-0.11491 0.49141,0.26291c1.25866,1.0553 4.23624,3.49033 7.06648,4.0312c2.30691,0.44086 3.02565,-0.10361 6.57884,-1.74283c3.01294,-1.38999 3.43744,-6.07971 3.37118,-7.67852c-0.12153,-2.93249 -0.2362,-2.3074 -0.92836,-3.93084c-0.8201,-1.9235 -2.72556,-3.41887 -4.01036,-3.89864c-2.1304,-0.79553 -4.26338,-1.01156 -6.34022,-0.42022c-2.90113,0.82604 -4.25756,2.3756 -5.30007,3.9468c-0.07716,0.11629 -0.97865,0.06874 -0.97865,0.06874z" fill="#6cff66" stroke="#000000" stroke-width="0"/><text transform="translate(19.81109,326.78086) scale(0.28407,0.28407)" font-size="40" xml:space="preserve" fill="#053be8" fill-rule="nonzero" stroke="none" stroke-width="1" stroke-linecap="butt" stroke-linejoin="miter" stroke-miterlimit="10" stroke-dasharray="" stroke-dashoffset="0" font-family="Sans Serif" font-weight="normal" text-anchor="start" style="mix-blend-mode: normal"><tspan x="0" dy="0">Starpath</tspan></text><g><path d="M79.34731,327.21088c-0.87369,0.52765 -3.44065,-2.19968 -3.44065,-2.19968c0,0 -2.99114,2.25656 -3.76344,1.58842c-0.77297,-0.66812 1.02858,-3.95323 1.02858,-3.95323c0,0 -3.06994,-2.14759 -2.67319,-3.08843c0.39675,-0.94156 4.07727,-0.24327 4.07727,-0.24327c0,0 1.09299,-3.58319 2.11059,-3.49753c1.01898,0.08633 1.49248,3.80316 1.49248,3.80316c0,0 3.74561,-0.06784 3.97723,0.92714c0.23366,0.99431 -3.15492,2.5937 -3.15492,2.5937c0,0 1.22181,3.54209 0.34605,4.06974z" fill="#ffff00" stroke="#000000" stroke-width="1.28786"/><path d="M77.64582,324.6117c-0.43993,0.26519 -1.73027,-1.106 -1.73027,-1.106c0,0 -1.50275,1.13409 -1.89062,0.79832c-0.38784,-0.33577 0.51669,-1.98586 0.51669,-1.98586c0,0 -1.54181,-1.07998 -1.3431,-1.5521c0.19943,-0.47284 2.04823,-0.12198 2.04823,-0.12198c0,0 0.54959,-1.80086 1.06147,-1.75699c0.5112,0.04315 0.7483,1.91049 0.7483,1.91049c0,0 1.88309,-0.0336 1.99956,0.46595c0.11789,0.50025 -1.58429,1.30335 -1.58429,1.30335c0,0 0.61262,1.77963 0.17405,2.04482z" fill-opacity="0.55686" fill="#ffffff" stroke="none" stroke-width="2.57572"/></g><g><path d="M94.17763,327.83531c-0.87369,0.52765 -3.44065,-2.19968 -3.44065,-2.19968c0,0 -2.99114,2.25656 -3.76344,1.58842c-0.77296,-0.66812 1.02858,-3.95323 1.02858,-3.95323c0,0 -3.06994,-2.14759 -2.67319,-3.08843c0.39675,-0.94156 4.07726,-0.24327 4.07726,-0.24327c0,0 1.09299,-3.58319 2.11059,-3.49752c1.01898,0.08633 1.49248,3.80315 1.49248,3.80315c0,0 3.74562,-0.06784 3.97724,0.92714c0.23367,0.99431 -3.15492,2.5937 -3.15492,2.5937c0,0 1.22181,3.54209 0.34604,4.06974z" fill="#ffff00" stroke="#000000" stroke-width="1.28786"/><path d="M92.47614,325.23613c-0.43993,0.2652 -1.73027,-1.106 -1.73027,-1.106c0,0 -1.50275,1.1341 -1.89062,0.79832c-0.38783,-0.33578 0.51668,-1.98586 0.51668,-1.98586c0,0 -1.54181,-1.07998 -1.3431,-1.5521c0.19943,-0.47284 2.04823,-0.12198 2.04823,-0.12198c0,0 0.54959,-1.80086 1.06146,-1.75698c0.5112,0.04315 0.7483,1.91049 0.7483,1.91049c0,0 1.88309,-0.0336 1.99957,0.46595c0.11789,0.50025 -1.5843,1.30336 -1.5843,1.30336c0,0 0.61262,1.77962 0.17405,2.04481z" fill-opacity="0.55686" fill="#ffffff" stroke="none" stroke-width="2.57572"/></g><g><path d="M122.7455,347.34888c-0.87369,0.52765 -3.44065,-2.19968 -3.44065,-2.19968c0,0 -2.99114,2.25656 -3.76344,1.58842c-0.77296,-0.66812 1.02858,-3.95323 1.02858,-3.95323c0,0 -3.06994,-2.14759 -2.67319,-3.08843c0.39675,-0.94156 4.07726,-0.24327 4.07726,-0.24327c0,0 1.09299,-3.58319 2.11059,-3.49753c1.01898,0.08633 1.49248,3.80316 1.49248,3.80316c0,0 3.74562,-0.06784 3.97724,0.92714c0.23366,0.99431 -3.15492,2.5937 -3.15492,2.5937c0,0 1.22181,3.54209 0.34605,4.06974z" fill="#ffff00" stroke="#000000" stroke-width="1.28786"/><path d="M121.04401,344.74971c-0.43993,0.2652 -1.73027,-1.106 -1.73027,-1.106c0,0 -1.50275,1.1341 -1.89062,0.79832c-0.38783,-0.33578 0.51669,-1.98586 0.51669,-1.98586c0,0 -1.54181,-1.07998 -1.3431,-1.5521c0.19943,-0.47284 2.04823,-0.12198 2.04823,-0.12198c0,0 0.54959,-1.80086 1.06146,-1.75698c0.5112,0.04315 0.7483,1.91049 0.7483,1.91049c0,0 1.88309,-0.0336 1.99957,0.46595c0.11789,0.50025 -1.5843,1.30336 -1.5843,1.30336c0,0 0.61262,1.77962 0.17405,2.04481z" fill-opacity="0.55686" fill="#ffffff" stroke="none" stroke-width="2.57572"/></g><g><path d="M22.36767,347.19278c-0.87369,0.52765 -3.44065,-2.19968 -3.44065,-2.19968c0,0 -2.99114,2.25656 -3.76344,1.58842c-0.77296,-0.66812 1.02858,-3.95324 1.02858,-3.95324c0,0 -3.06994,-2.14759 -2.67319,-3.08843c0.39675,-0.94156 4.07726,-0.24328 4.07726,-0.24328c0,0 1.09299,-3.58319 2.11059,-3.49752c1.01898,0.08633 1.49248,3.80316 1.49248,3.80316c0,0 3.74562,-0.06784 3.97724,0.92714c0.23367,0.99431 -3.15492,2.5937 -3.15492,2.5937c0,0 1.22181,3.54209 0.34605,4.06974z" fill="#ffff00" stroke="#000000" stroke-width="1.28786"/><path d="M20.66618,344.5936c-0.43993,0.2652 -1.73027,-1.106 -1.73027,-1.106c0,0 -1.50275,1.1341 -1.89062,0.79832c-0.38783,-0.33578 0.51669,-1.98586 0.51669,-1.98586c0,0 -1.54181,-1.07998 -1.3431,-1.5521c0.19943,-0.47284 2.04823,-0.12198 2.04823,-0.12198c0,0 0.54959,-1.80086 1.06146,-1.75698c0.5112,0.04315 0.7483,1.91049 0.7483,1.91049c0,0 1.88309,-0.0336 1.99957,0.46595c0.11789,0.50025 -1.5843,1.30336 -1.5843,1.30336c0,0 0.61262,1.77962 0.17405,2.04481z" fill-opacity="0.55686" fill="#ffffff" stroke="none" stroke-width="2.57572"/></g><g><path d="M62.95591,345.00725c-0.87369,0.52765 -3.44065,-2.19968 -3.44065,-2.19968c0,0 -2.99114,2.25657 -3.76344,1.58842c-0.77296,-0.66812 1.02858,-3.95324 1.02858,-3.95324c0,0 -3.06994,-2.14759 -2.67319,-3.08843c0.39675,-0.94156 4.07726,-0.24327 4.07726,-0.24327c0,0 1.09299,-3.58319 2.11059,-3.49752c1.01898,0.08633 1.49248,3.80316 1.49248,3.80316c0,0 3.74561,-0.06784 3.97723,0.92714c0.23367,0.99431 -3.15491,2.5937 -3.15491,2.5937c0,0 1.22181,3.54209 0.34605,4.06974z" fill="#ffff00" stroke="#000000" stroke-width="1.28786"/><path d="M61.25442,342.40808c-0.43993,0.2652 -1.73027,-1.106 -1.73027,-1.106c0,0 -1.50275,1.1341 -1.89062,0.79832c-0.38783,-0.33578 0.51668,-1.98586 0.51668,-1.98586c0,0 -1.54181,-1.07998 -1.3431,-1.5521c0.19942,-0.47284 2.04823,-0.12198 2.04823,-0.12198c0,0 0.54959,-1.80086 1.06146,-1.75698c0.5112,0.04315 0.7483,1.91049 0.7483,1.91049c0,0 1.88309,-0.0336 1.99956,0.46595c0.11789,0.50025 -1.58429,1.30336 -1.58429,1.30336c0,0 0.61262,1.77962 0.17405,2.04481z" fill-opacity="0.55686" fill="#ffffff" stroke="none" stroke-width="2.57572"/></g></g></g></svg>