<svg version="1.1" xmlns="http://www.w3.org/2000/svg" xmlns:xlink="http://www.w3.org/1999/xlink" width="62.60294" height="64.5" viewBox="0,0,62.60294,64.5"><defs><radialGradient cx="239.875" cy="179.875" r="32.25" gradientUnits="userSpaceOnUse" id="color-1"><stop offset="0" stop-color="#000000"/><stop offset="1" stop-color="#000000" stop-opacity="0"/></radialGradient><radialGradient cx="240" cy="180" r="31.09091" gradientUnits="userSpaceOnUse" id="color-2"><stop offset="0" stop-color="#000000"/><stop offset="1" stop-color="#000000" stop-opacity="0"/></radialGradient></defs><g transform="translate(-208.57353,-147.625)"><g data-paper-data="{&quot;isPaintingLayer&quot;:true}" fill-rule="nonzero" stroke-linecap="butt" stroke-linejoin="miter" stroke-miterlimit="10" stroke-dasharray="" stroke-dashoffset="0" style="mix-blend-mode: normal"><path d="M215.31863,212.125c-3.72521,0 -6.7451,-3.01988 -6.7451,-6.7451v-51.0098c0,-3.72521 3.01988,-6.7451 6.7451,-6.7451h49.11275c3.72521,0 6.7451,3.01988 6.7451,6.7451v51.0098c0,3.72521 -3.01988,6.7451 -6.7451,6.7451z" fill="url(#color-1)" stroke="none" stroke-width="0"/><path d="M216.3262,211.09091c-3.59133,0 -6.50267,-2.91135 -6.50267,-6.50267v-49.17647c0,-3.59133 2.91135,-6.50267 6.50267,-6.50267h47.34759c3.59133,0 6.50267,2.91135 6.50267,6.50267v49.17647c0,3.59133 -2.91135,6.50267 -6.50267,6.50267z" fill="url(#color-2)" stroke="none" stroke-width="0"/><path d="M228.07271,195.375c-1.79041,0 -3.24183,-1.45142 -3.24183,-3.24183v-24.51634c0,-1.79041 1.45142,-3.24183 3.24183,-3.24183h23.60458c1.79041,0 3.24183,1.45142 3.24183,3.24183v24.51634c0,1.79041 -1.45142,3.24183 -3.24183,3.24183z" fill="#000000" stroke="none" stroke-width="0"/><text transform="translate(233.9,185.76875) scale(0.5,0.5)" font-size="40" xml:space="preserve" fill="#ffffff" fill-rule="nonzero" stroke="#c7c7c7" stroke-width="1" stroke-linecap="butt" stroke-linejoin="miter" stroke-miterlimit="10" stroke-dasharray="" stroke-dashoffset="0" font-family="Sans Serif" font-weight="normal" text-anchor="start" style="mix-blend-mode: normal"><tspan x="0" dy="0">X</tspan></text></g></g></svg>