<svg version="1.1" xmlns="http://www.w3.org/2000/svg" xmlns:xlink="http://www.w3.org/1999/xlink" width="37.44101" height="40.45799" viewBox="0,0,37.44101,40.45799"><g transform="translate(-221.38454,-157.23432)"><g data-paper-data="{&quot;isPaintingLayer&quot;:true}" fill-rule="nonzero" stroke-linejoin="miter" stroke-miterlimit="10" stroke-dasharray="" stroke-dashoffset="0" style="mix-blend-mode: normal"><path d="M222.30772,197.69232v-35.38462h35.38462v35.38462z" fill="#2fc4ff" stroke="none" stroke-width="0" stroke-linecap="butt"/><text transform="translate(221.62726,178.35053) scale(0.48543,0.48543)" font-size="40" xml:space="preserve" fill="#ffb566" fill-rule="nonzero" stroke="none" stroke-width="1" stroke-linecap="butt" stroke-linejoin="miter" stroke-miterlimit="10" stroke-dasharray="" stroke-dashoffset="0" font-family="Sans Serif" font-weight="normal" text-anchor="start" style="mix-blend-mode: normal"><tspan x="0" dy="0">1</tspan></text><text transform="translate(230.08173,172.25352) scale(0.2308,0.2308)" font-size="40" xml:space="preserve" fill="#ffb566" fill-rule="nonzero" stroke="none" stroke-width="1" stroke-linecap="butt" stroke-linejoin="miter" stroke-miterlimit="10" stroke-dasharray="" stroke-dashoffset="0" font-family="Sans Serif" font-weight="normal" text-anchor="start" style="mix-blend-mode: normal"><tspan x="0" dy="0">Buggy</tspan></text><g><path d="M228.95274,196.47684c0,0 -1.39397,-3.92124 -1.99092,-5.91223c-0.59708,-1.99142 -1.59119,-6.035 -1.59119,-6.035l0.84551,-0.2535l3.58211,11.94722z" fill="#999999" stroke="#000000" stroke-width="0.5" stroke-linecap="butt"/><path d="M229.76781,196.51315c0,0 -1.54203,-3.95588 -2.15907,-6.01387c-0.61859,-2.06318 -1.54786,-6.34966 -1.54786,-6.34966c0,0 -0.02519,-0.46704 0.58647,-0.65043c0.89641,-0.26877 3.75244,-1.13495 7.19101,-2.17998c0.35556,-0.10806 1.08119,0.33203 1.45013,0.21988c8.43401,-2.56385 11.64688,-3.97779 11.64688,-3.97779c0,0 2.4885,-1.81925 4.85692,-1.11757c0.70693,0.56789 0.37831,0.7781 2.28845,0.98495c1.71182,0.53753 2.76749,3.7354 2.89871,4.17304c0.2016,0.67239 1.04083,3.30625 -0.26601,4.99241c-1.15061,0.9451 -0.73816,1.62394 -1.2904,2.07054c-1.40175,1.64658 -4.56314,1.98592 -4.56314,1.98592c0,0 -3.57312,0.51639 -11.99842,3.02498c-0.4326,0.1288 -0.736,0.87805 -1.1499,1.00131c-3.3428,0.99546 -6.16383,1.83652 -7.02542,2.09485c-0.58383,0.17505 -0.91834,-0.25857 -0.91834,-0.25857z" fill="#cc0000" stroke="#000000" stroke-width="0.5" stroke-linecap="butt"/><path d="M235.02817,193.86182l-3.1339,-10.45235l16.50537,-4.44028l2.83082,9.4415z" fill="#343434" stroke="#000000" stroke-width="0.25" stroke-linecap="butt"/><path d="M232.03513,194.73188c0,0 -0.42176,0.08888 -0.55127,-0.27245c-0.67262,-1.87664 -2.44457,-8.1045 -2.87608,-9.54369c-0.20462,-0.68248 0.28532,-0.66332 0.28532,-0.66332c0,0 1.30794,-0.39216 2.5206,-0.75574c1.15741,-0.34702 2.15125,0.43972 4.97657,-0.40739c4.84947,-1.454 8.79203,-3.08274 8.79203,-3.08274l2.80852,9.36711c0,0 -5.07338,0.74602 -9.13473,2.14986c-1.89035,0.65342 -3.56767,2.25096 -4.40086,2.53076c-1.05233,0.35339 -2.4201,0.6776 -2.4201,0.6776z" fill="#f3df00" stroke="#000000" stroke-width="0.5" stroke-linecap="butt"/><path d="M232.69503,193.02413c0,0 -0.96393,-2.75733 -1.35979,-4.07762c-0.37323,-1.24484 -0.9515,-3.63111 -0.9515,-3.63111c0,0 1.41048,-0.46044 2.06111,-0.65552c0.57962,-0.17379 1.84151,-0.13926 1.84151,-0.13926l2.0738,6.91665c0,0 -0.95082,0.73549 -1.52009,0.90617c-0.6884,0.2064 -2.14504,0.68068 -2.14504,0.68068z" fill="#4d6080" stroke="#000000" stroke-width="0.5" stroke-linecap="butt"/><path d="M248.02519,189.424l-2.84855,-9.50062l3.24026,-0.97151l2.84855,9.50062z" fill="#cccccc" stroke="#000000" stroke-width="0.25" stroke-linecap="butt"/><path d="M248.18856,188.88964l-2.5815,-8.60994l2.79148,-0.83696l2.5815,8.60994z" fill="#4c5f7e" stroke="#000000" stroke-width="0.25" stroke-linecap="butt"/><path d="M245.61401,183.25151l-0.32184,-1.14407l0.5258,-0.47546l0.50448,1.68255z" fill="#cbcbcb" stroke="#000000" stroke-width="0.25" stroke-linecap="butt"/><path d="M247.01751,187.93254l-0.32183,-1.14406l0.5258,-0.47546l0.50447,1.68255z" fill="#cbcbcb" stroke="#000000" stroke-width="0.25" stroke-linecap="butt"/><path d="M255.32755,186.14786c0,0 -1.59409,1.15813 -2.23238,1.71562c-0.72278,0.46478 -1.37459,1.47843 -1.37459,1.47843c0,0 -0.12459,0.279 -0.42826,0.37588c-0.80223,0.25593 -4.7854,1.04416 -8.88077,2.3001c-5.40589,1.65783 -11.12308,3.84234 -11.12308,3.84234c0,0 -0.40823,0.07987 -0.56695,-0.07719c-0.15872,-0.15706 -0.47224,-0.98867 -0.62477,-1.52318c-0.17862,-0.6259 -0.49614,-0.4346 -0.49614,-0.4346l-0.52616,0.15776" data-paper-data="{&quot;index&quot;:null}" fill="none" stroke="#ffffff" stroke-width="0.5" stroke-linecap="round"/><path d="M249.46783,188.22855l0.44756,1.49272c0,0 -1.00944,0.14303 -1.18753,-0.45094c-0.17809,-0.59398 0.73998,-1.04178 0.73998,-1.04178z" fill="#cccccc" stroke="#000000" stroke-width="0.25" stroke-linecap="round"/><path d="M226.88125,186.66817l0.52616,-0.15776c0,0 0.3704,-0.01495 0.17518,-0.63587c-0.16672,-0.53026 -0.36246,-1.39717 -0.31634,-1.61566c0.04612,-0.21848 0.43095,-0.3764 0.43095,-0.3764c0,0 5.97598,-1.32143 11.40222,-2.91137c4.11079,-1.2045 7.87056,-2.73781 8.68127,-2.96548c0.30687,-0.08619 0.56442,0.07824 0.56442,0.07824c0,0 1.10198,0.48782 1.96125,0.47825c0.83973,0.11434 2.80805,0.20436 2.80805,0.20436" data-paper-data="{&quot;index&quot;:null}" fill="none" stroke="#ffffff" stroke-width="0.5" stroke-linecap="round"/><path d="M248.46032,179.02949l5.08634,-0.24956c0,0 0.20598,0.09958 0.25745,0.27871c0.19724,0.68643 1.51755,5.09729 1.87223,6.47037c0.06695,0.25917 -0.08158,0.3786 -0.08158,0.3786l-4.33559,2.45674" fill="none" stroke="#000000" stroke-width="0.5" stroke-linecap="round"/><path d="M250.80679,179.12309c-0.16062,-0.17916 -0.25862,-0.41791 -0.2493,-0.73c0.00857,-0.28692 0.41781,-0.54237 0.41781,-0.54237l0.42951,1.43251c0,0 -0.43741,0.01901 -0.59802,-0.16015z" fill="#cbcbcb" stroke="#000000" stroke-width="0.5" stroke-linecap="butt"/><path d="M253.37847,187.78451c-0.16062,-0.17916 -0.25862,-0.41791 -0.2493,-0.73c0.00857,-0.28692 0.41782,-0.54237 0.41782,-0.54237l0.42951,1.43252c0,0 -0.43741,0.019 -0.59802,-0.16016z" fill="#cbcbcb" stroke="#000000" stroke-width="0.5" stroke-linecap="butt"/><path d="M254.51307,186.48398c0,0 -0.22601,-0.09623 -0.27085,-0.23288c-0.04484,-0.13665 -1.15526,-4.17469 -2.0162,-6.91343c-0.15529,-0.49401 0.11809,-0.45606 0.11809,-0.45606" fill="none" stroke="#000000" stroke-width="0.25" stroke-linecap="round"/><path d="M255.91491,184.92626l-0.35139,-1.17198l0.33619,-0.20137l0.4012,1.33809z" fill="#cccccc" stroke="#000000" stroke-width="0.25" stroke-linecap="butt"/><path d="M254.63201,180.56501l-0.35139,-1.17198l0.33619,-0.20138l0.4012,1.33809z" fill="#cccccc" stroke="#000000" stroke-width="0.25" stroke-linecap="butt"/><path d="M251.40687,180.01812c-0.13152,0.03943 -0.26706,-0.02507 -0.30273,-0.14406c-0.03567,-0.11899 0.04202,-0.24742 0.17353,-0.28685c0.13152,-0.03943 0.26706,0.02507 0.30274,0.14406c0.03567,0.11899 -0.04202,0.24742 -0.17354,0.28685z" fill="#000000" stroke="#000000" stroke-width="0.25" stroke-linecap="butt"/><path d="M251.55165,179.74606c0.03045,0.10155 -0.03451,0.21076 -0.14509,0.24391c-0.11058,0.03315 -0.22491,-0.0223 -0.25536,-0.12385c-0.03045,-0.10155 0.03451,-0.21076 0.14509,-0.24391c0.11058,-0.03315 0.22491,0.0223 0.25536,0.12385z" fill="#ffffff" stroke="#000000" stroke-width="0.25" stroke-linecap="butt"/><path d="M254.0378,179.20811l-0.12694,-0.42335l0.9962,-0.69418l0.35674,0.42037z" fill="#ffffff" stroke="none" stroke-width="0" stroke-linecap="butt"/><path d="M257.15263,185.03052l-0.06661,0.54729l-1.21379,-0.03157l-0.12693,-0.42335z" data-paper-data="{&quot;index&quot;:null}" fill="#ffffff" stroke="none" stroke-width="0" stroke-linecap="butt"/><text transform="translate(253.48939,185.01023) rotate(-107.58053) scale(0.03584,0.03584)" font-size="40" xml:space="preserve" fill="#ffffff" fill-rule="nonzero" stroke="none" stroke-width="1" stroke-linecap="butt" stroke-linejoin="miter" stroke-miterlimit="10" stroke-dasharray="" stroke-dashoffset="0" font-family="Sans Serif" font-weight="normal" text-anchor="start" style="mix-blend-mode: normal"><tspan x="0" dy="0">PUMA</tspan></text><path d="M226.85969,186.13934c-0.06029,-0.13688 -0.24789,-1.12075 -0.41882,-1.88526c-0.03146,-0.14075 0.30494,-0.2616 0.3597,-0.13225c0.05477,0.12935 0.27157,1.19088 0.41657,1.95915c0.02748,0.14559 -0.29716,0.19523 -0.35745,0.05836z" fill="#ff8800" stroke="#000000" stroke-width="0.5" stroke-linecap="butt"/><path d="M226.8027,185.45949l-0.15291,-0.6879l0.15024,-0.02388l0.1529,0.68789z" fill="#b50000" stroke="none" stroke-width="0" stroke-linecap="butt"/><path d="M226.92811,186.1589l-0.16469,-0.68715l0.21005,-0.05253l0.16469,0.68715z" fill="#ff0000" stroke="none" stroke-width="0" stroke-linecap="butt"/><path d="M226.77319,185.50657l-0.16469,-0.68716l0.21005,-0.05254l0.16469,0.68715z" fill="#b30000" stroke="none" stroke-width="0" stroke-linecap="butt"/><path d="M226.62004,184.88001l-0.16196,-0.68797l0.22492,-0.05699l0.16197,0.68797z" fill="#e68500" stroke="none" stroke-width="0" stroke-linecap="butt"/><path d="M226.85522,184.82509l-0.26453,0.05588" fill="none" stroke="#000000" stroke-width="0.25" stroke-linecap="round"/><path d="M226.74113,185.53908l0.24303,-0.04943" fill="none" stroke="#000000" stroke-width="0.25" stroke-linecap="round"/><path d="M229.69912,194.24431c0.30161,0.72131 0.70463,1.72702 0.73006,1.86516c0.02543,0.13814 -0.32196,0.22231 -0.37312,0.08747c-0.2779,-0.73244 -0.66257,-1.65723 -0.68753,-1.8047c-0.02496,-0.14747 0.27344,-0.28463 0.3306,-0.14793z" data-paper-data="{&quot;index&quot;:null}" fill="#ff8800" stroke="#000000" stroke-width="0.5" stroke-linecap="butt"/><path d="M229.83359,194.9286l0.25079,0.65854l-0.13859,0.06271l-0.2508,-0.65855z" data-paper-data="{&quot;index&quot;:null}" fill="#b50000" stroke="none" stroke-width="0" stroke-linecap="butt"/><path d="M229.6192,194.26657l0.24054,0.6644l-0.2043,0.07171l-0.24054,-0.66441z" data-paper-data="{&quot;index&quot;:null}" fill="#ff0000" stroke="none" stroke-width="0" stroke-linecap="butt"/><path d="M229.84874,194.89653l0.24054,0.66441l-0.2043,0.0717l-0.24055,-0.66441z" data-paper-data="{&quot;index&quot;:null}" fill="#b30000" stroke="none" stroke-width="0" stroke-linecap="butt"/><path d="M230.08047,195.49953l0.24327,0.66359l-0.21918,0.07616l-0.24327,-0.6636z" data-paper-data="{&quot;index&quot;:null}" fill="#e68500" stroke="none" stroke-width="0" stroke-linecap="butt"/><path d="M229.83625,195.59104l0.25164,-0.09889" data-paper-data="{&quot;index&quot;:null}" fill="none" stroke="#000000" stroke-width="0.25" stroke-linecap="round"/><path d="M229.59978,194.95872l0.23012,-0.09244" data-paper-data="{&quot;index&quot;:null}" fill="none" stroke="#000000" stroke-width="0.25" stroke-linecap="round"/><path d="M229.04298,190.52407l-0.31098,-1.10377" fill="none" stroke="#9a9a9a" stroke-width="0.5" stroke-linecap="round"/><path d="M228.12864,188.2814c0,0 0.57022,-0.25634 1.17091,1.50933c0.47401,1.73247 -0.19367,1.87927 -0.19367,1.87927" fill="none" stroke="#000000" stroke-width="0.25" stroke-linecap="round"/><path d="M248.84079,178.45183c-0.06127,-0.05015 -0.09399,-0.12118 -0.07881,-0.21898c0.01395,-0.08991 0.19574,-0.18443 0.19574,-0.18443l0.12948,0.43187c0,0 -0.18514,0.0217 -0.24641,-0.02846z" fill="#343434" stroke="#000000" stroke-width="0.5" stroke-linecap="butt"/><path d="M252.13979,188.83609c-0.06127,-0.05015 -0.09399,-0.12119 -0.07881,-0.21898c0.01395,-0.08991 0.19574,-0.18444 0.19574,-0.18444l0.12949,0.43187c0,0 -0.18514,0.02171 -0.24641,-0.02845z" fill="#343434" stroke="#000000" stroke-width="0.5" stroke-linecap="butt"/><path d="M236.71172,183.61169l2.15071,7.38575" fill="none" stroke="#000000" stroke-width="0.5" stroke-linecap="round"/><path d="M245.52128,177.5387l0.47975,1.60008" fill="none" stroke="#000000" stroke-width="0.5" stroke-linecap="round"/><path d="M245.89448,178.39565l1.26927,0.35576l0.22037,0.47648" fill="none" stroke="#000000" stroke-width="0.25" stroke-linecap="round"/></g></g></g></svg>