<svg version="1.1" xmlns="http://www.w3.org/2000/svg" xmlns:xlink="http://www.w3.org/1999/xlink" width="581.41304" height="427.3136" viewBox="0,0,581.41304,427.3136"><g transform="translate(50.70652,33.6568)"><g data-paper-data="{&quot;isPaintingLayer&quot;:true}" fill-rule="nonzero" stroke-linecap="butt" stroke-linejoin="miter" stroke-miterlimit="10" stroke-dasharray="" stroke-dashoffset="0" style="mix-blend-mode: normal"><path d="M-1.42857,360.51065v-361.02129h482.85714v361.02129z" fill="#000000" stroke="#ff0000" stroke-width="0"/><path d="M102.46569,244.12452c0,-14.67633 11.89752,-26.57385 26.57385,-26.57385c14.67633,0 26.57385,11.89752 26.57385,26.57385c0,14.67633 -11.89752,26.57385 -26.57385,26.57385c-14.67633,0 -26.57385,-11.89752 -26.57385,-26.57385z" fill="#9966ff" stroke="none" stroke-width="0"/><path d="M140.53093,197.79984c0,-18.04792 14.63073,-32.67865 32.67865,-32.67865c18.04792,0 32.67865,14.63073 32.67865,32.67865c0,18.04792 -14.63073,32.67865 -32.67865,32.67865c-18.04792,0 -32.67865,-14.63073 -32.67865,-32.67865z" fill="#9966ff" stroke="none" stroke-width="0"/><path d="M80.91932,182.71739c0,-14.87466 12.05829,-26.93295 26.93295,-26.93295c14.87466,0 26.93295,12.05829 26.93295,26.93295c0,14.87466 -12.05829,26.93295 -26.93295,26.93295c-14.87466,0 -26.93295,-12.05829 -26.93295,-26.93295z" fill="#9966ff" stroke="none" stroke-width="0"/><path d="M123.65294,131.36522c0,-12.89137 10.45052,-23.34189 23.34189,-23.34189c12.89137,0 23.34189,10.45052 23.34189,23.34189c0,12.89137 -10.45052,23.34189 -23.34189,23.34189c-12.89137,0 -23.34189,-10.45052 -23.34189,-23.34189z" fill="#9966ff" stroke="none" stroke-width="0"/><path d="M371.07702,221.50084c0,-10.90808 8.84275,-19.75083 19.75083,-19.75083c10.90808,0 19.75083,8.84275 19.75083,19.75083c0,10.90808 -8.84275,19.75083 -19.75083,19.75083c-10.90808,0 -19.75083,-8.84275 -19.75083,-19.75083z" fill="#9966ff" stroke="none" stroke-width="0"/><path d="M331.93446,189.1813c0,-12.69304 10.28974,-22.98279 22.98279,-22.98279c12.69304,0 22.98279,10.28974 22.98279,22.98279c0,12.69304 -10.28974,22.98279 -22.98279,22.98279c-12.69304,0 -22.98279,-10.28974 -22.98279,-22.98279z" fill="#9966ff" stroke="none" stroke-width="0"/><path d="M380.41378,178.04901c0,-10.70976 8.68197,-19.39173 19.39173,-19.39173c10.70976,0 19.39173,8.68197 19.39173,19.39173c0,10.70976 -8.68197,19.39173 -19.39173,19.39173c-10.70976,0 -19.39173,-8.68197 -19.39173,-19.39173z" fill="#9966ff" stroke="none" stroke-width="0"/><path d="M261.19056,290.44921c0,-9.71811 7.87809,-17.5962 17.5962,-17.5962c9.71811,0 17.5962,7.87809 17.5962,17.5962c0,9.71811 -7.87809,17.5962 -17.5962,17.5962c-9.71811,0 -17.5962,-7.87809 -17.5962,-17.5962z" fill="#9966ff" stroke="none" stroke-width="0"/><path d="M292.07368,317.02305c0,-10.51143 8.52119,-19.03262 19.03262,-19.03262c10.51143,0 19.03262,8.52119 19.03262,19.03262c0,10.51143 -8.52119,19.03262 -19.03262,19.03262c-10.51143,0 -19.03262,-8.52119 -19.03262,-19.03262z" fill="#9966ff" stroke="none" stroke-width="0"/><path d="M242.51705,79.29484c0,-15.27132 12.37985,-27.65117 27.65117,-27.65117c15.27132,0 27.65117,12.37985 27.65117,27.65117c0,15.27132 -12.37985,27.65117 -27.65117,27.65117c-15.27132,0 -27.65117,-12.37985 -27.65117,-27.65117z" fill="#9966ff" stroke="none" stroke-width="0"/><path d="M299.97402,92.94087c0,-13.68469 11.09363,-24.77832 24.77832,-24.77832c13.68469,0 24.77832,11.09363 24.77832,24.77832c0,13.68469 -11.09363,24.77832 -24.77832,24.77832c-13.68469,0 -24.77832,-11.09363 -24.77832,-24.77832z" fill="#9966ff" stroke="none" stroke-width="0"/><path d="M293.51011,46.25709c0,-10.11477 8.19964,-18.31441 18.31441,-18.31441c10.11477,0 18.31441,8.19964 18.31441,18.31441c0,10.11477 -8.19964,18.31441 -18.31441,18.31441c-10.11477,0 -18.31441,-8.19964 -18.31441,-18.31441z" fill="#9966ff" stroke="none" stroke-width="0"/><path d="M20.58951,55.23474c0,-14.67633 11.89752,-26.57385 26.57385,-26.57385c14.67633,0 26.57385,11.89752 26.57385,26.57385c0,14.67633 -11.89752,26.57385 -26.57385,26.57385c-14.67633,0 -26.57385,-11.89752 -26.57385,-26.57385z" fill="#9966ff" stroke="none" stroke-width="0"/><path d="M-31.12177,22.19698c0,-13.48636 10.93285,-24.41921 24.41921,-24.41921c13.48636,0 24.41921,10.93285 24.41921,24.41921c0,13.48636 -10.93285,24.41921 -24.41921,24.41921c-13.48636,0 -24.41921,-10.93285 -24.41921,-24.41921z" fill="#9966ff" stroke="none" stroke-width="0"/><path d="M-20.34859,232.63313c0,-11.50307 9.32508,-20.82815 20.82815,-20.82815c11.50307,0 20.82815,9.32508 20.82815,20.82815c0,11.50307 -9.32508,20.82815 -20.82815,20.82815c-11.50307,0 -20.82815,-9.32508 -20.82815,-20.82815z" fill="#9966ff" stroke="none" stroke-width="0"/><path d="M39.26302,364.06595c0,-12.29639 9.96819,-22.26458 22.26458,-22.26458c12.29639,0 22.26458,9.96819 22.26458,22.26458c0,12.29639 -9.96819,22.26458 -22.26458,22.26458c-12.29639,0 -22.26458,-9.96819 -22.26458,-22.26458z" fill="#9966ff" stroke="none" stroke-width="0"/><path d="M167.82299,340.00584c0,-13.28803 10.77208,-24.06011 24.06011,-24.06011c13.28803,0 24.06011,10.77208 24.06011,24.06011c0,13.28803 -10.77208,24.06011 -24.06011,24.06011c-13.28803,0 -24.06011,-10.77208 -24.06011,-24.06011z" fill="#9966ff" stroke="none" stroke-width="0"/><path d="M215.9432,362.27042c0,-10.90808 8.84275,-19.75083 19.75083,-19.75083c10.90808,0 19.75083,8.84275 19.75083,19.75083c0,10.90808 -8.84275,19.75083 -19.75083,19.75083c-10.90808,0 -19.75083,-8.84275 -19.75083,-19.75083z" fill="#9966ff" stroke="none" stroke-width="0"/><path d="M223.12532,317.38216c0,-10.3131 8.36042,-18.67352 18.67352,-18.67352c10.3131,0 18.67352,8.36042 18.67352,18.67352c0,10.3131 -8.36042,18.67352 -18.67352,18.67352c-10.3131,0 -18.67352,-8.36042 -18.67352,-18.67352z" fill="#9966ff" stroke="none" stroke-width="0"/><path d="M259.75414,350.06081c0,-10.11477 8.19964,-18.31441 18.31441,-18.31441c10.11477,0 18.31441,8.19964 18.31441,18.31441c0,10.11477 -8.19964,18.31441 -18.31441,18.31441c-10.11477,0 -18.31441,-8.19964 -18.31441,-18.31441z" fill="#9966ff" stroke="none" stroke-width="0"/><path d="M425.66114,340.72405c0,-12.49471 10.12897,-22.62368 22.62368,-22.62368c12.49471,0 22.62368,10.12897 22.62368,22.62368c0,12.49471 -10.12897,22.62368 -22.62368,22.62368c-12.49471,0 -22.62368,-10.12897 -22.62368,-22.62368z" fill="#9966ff" stroke="none" stroke-width="0"/><path d="M470.19029,364.06595c0,-7.93315 6.43109,-14.36424 14.36424,-14.36424c7.93315,0 14.36424,6.43109 14.36424,14.36424c0,7.93315 -6.43109,14.36424 -14.36424,14.36424c-7.93315,0 -14.36424,-6.43109 -14.36424,-14.36424z" fill="#9966ff" stroke="none" stroke-width="0"/><path d="M406.98762,71.39451c0,-14.87466 12.05829,-26.93295 26.93295,-26.93295c14.87466,0 26.93295,12.05829 26.93295,26.93295c0,14.87466 -12.05829,26.93295 -26.93295,26.93295c-14.87466,0 -26.93295,-12.05829 -26.93295,-26.93295z" fill="#9966ff" stroke="none" stroke-width="0"/><path d="M386.87768,18.24681c0,-12.09806 9.80741,-21.90547 21.90547,-21.90547c12.09806,0 21.90547,9.80741 21.90547,21.90547c0,12.09806 -9.80741,21.90547 -21.90547,21.90547c-12.09806,0 -21.90547,-9.80741 -21.90547,-21.90547z" fill="#9966ff" stroke="none" stroke-width="0"/><path d="M440.02538,13.93754c0,-14.08134 11.41519,-25.49653 25.49653,-25.49653c14.08134,0 25.49653,11.41519 25.49653,25.49653c0,14.08134 -11.41519,25.49653 -25.49653,25.49653c-14.08134,0 -25.49653,-11.41519 -25.49653,-25.49653z" fill="#9966ff" stroke="none" stroke-width="0"/><path d="M130.3207,-8.67471c0,-13.0897 10.6113,-23.701 23.701,-23.701c13.0897,0 23.701,10.6113 23.701,23.701c0,13.0897 -10.6113,23.701 -23.701,23.701c-13.0897,0 -23.701,-10.6113 -23.701,-23.701z" fill="#9966ff" stroke="none" stroke-width="0"/><path d="M-50.70652,393.6568v-427.3136h581.41304v427.3136z" fill-opacity="0.50196" fill="#000000" stroke="none" stroke-width="none"/></g></g></svg>