<svg version="1.1" xmlns="http://www.w3.org/2000/svg" xmlns:xlink="http://www.w3.org/1999/xlink" width="28.46359" height="28.26748" viewBox="0,0,28.46359,28.26748"><g transform="translate(-225.75478,-166.03543)"><g data-paper-data="{&quot;isPaintingLayer&quot;:true}" fill-rule="nonzero" stroke-linecap="butt" stroke-linejoin="miter" stroke-miterlimit="10" stroke-dasharray="" stroke-dashoffset="0" style="mix-blend-mode: normal"><g><path d="M247.04631,193.16316c-2.03056,1.22632 -7.99645,-5.1123 -7.99645,-5.1123c0,0 -6.95174,5.24451 -8.74665,3.69166c-1.79646,-1.55277 2.39053,-9.18776 2.39053,-9.18776c0,0 -7.13487,-4.99124 -6.21278,-7.17785c0.92209,-2.18829 9.47602,-0.5654 9.47602,-0.5654c0,0 2.54023,-8.32773 4.90523,-8.12864c2.36822,0.20064 3.46869,8.83895 3.46869,8.83895c0,0 8.70523,-0.15767 9.24354,2.15478c0.54306,2.3109 -7.33237,6.02804 -7.33237,6.02804c0,0 2.83962,8.23221 0.80425,9.45853z" fill="#ffff00" stroke="#000000" stroke-width="1.28786"/><path d="M243.09186,187.12239c-1.02245,0.61634 -4.02134,-2.57047 -4.02134,-2.57047c0,0 -3.49257,2.63576 -4.39401,1.85538c-0.90137,-0.78038 1.20083,-4.61536 1.20083,-4.61536c0,0 -3.58334,-2.51001 -3.12151,-3.60726c0.46349,-1.09893 4.76031,-0.2835 4.76031,-0.2835c0,0 1.27731,-4.18539 2.46696,-4.08343c1.18809,0.10029 1.73913,4.44019 1.73913,4.44019c0,0 4.37651,-0.07809 4.64721,1.08292c0.27398,1.16262 -3.68208,3.02914 -3.68208,3.02914c0,0 1.4238,4.13603 0.40451,4.75238z" fill-opacity="0.55686" fill="#ffffff" stroke="none" stroke-width="2.57572"/></g></g></g></svg>