<svg version="1.1" xmlns="http://www.w3.org/2000/svg" xmlns:xlink="http://www.w3.org/1999/xlink" width="201.83655" height="201.23982" viewBox="0,0,201.83655,201.23982"><g transform="translate(-139.33927,-79.33303)"><g data-paper-data="{&quot;isPaintingLayer&quot;:true}" fill="#66b6ff" fill-rule="nonzero" stroke="none" stroke-width="0" stroke-linecap="butt" stroke-linejoin="miter" stroke-miterlimit="10" stroke-dasharray="" stroke-dashoffset="0" style="mix-blend-mode: normal"><path d="M238.91439,79.33303h101.65636v201.15878h-101.65636z"/><g><path d="M240.5187,79.42238v200.52152c0,0 -40.42744,5.6518 -72.86409,-55.76759c-30.65607,-63.19448 -27.70605,-144.75392 -27.70605,-144.75392z"/><path d="M240.52164,79.40569h100.58569c0,0 2.83506,80.61859 -27.97416,145.30233c-31.69965,61.13299 -72.61152,55.25018 -72.61152,55.25018z"/></g><g><path d="M239.99641,280.55626v-199.44096c0,0 40.42744,-5.62133 72.86409,55.46708c30.65607,62.85393 27.70605,143.97388 27.70605,143.97388z"/><path d="M239.99346,280.57285h-100.58569c0,0 -2.83505,-80.18417 27.97416,-144.51934c31.69965,-60.80355 72.61152,-54.95244 72.61152,-54.95244z"/></g></g></g></svg>