<svg version="1.1" xmlns="http://www.w3.org/2000/svg" xmlns:xlink="http://www.w3.org/1999/xlink" width="200.12207" height="200.77421" viewBox="0,0,200.12207,200.77421"><g transform="translate(-139.93613,-79.34909)"><g data-paper-data="{&quot;isPaintingLayer&quot;:true}" fill="#66b6ff" fill-rule="nonzero" stroke="none" stroke-width="0" stroke-linecap="butt" stroke-linejoin="miter" stroke-miterlimit="10" stroke-dasharray="" stroke-dashoffset="0" style="mix-blend-mode: normal"><path d="M340.03614,178.96614v101.1213h-200.10001v-101.1213z"/><g><path d="M340.04159,179.99596h-199.46611c0,0 -5.62205,-40.21466 55.47407,-72.48059c62.86187,-30.49472 143.99204,-27.56023 143.99204,-27.56023z"/><path d="M340.0582,179.99889v100.05627c0,0 -80.19427,2.82013 -144.53755,-27.82692c-60.81122,-31.53279 -54.95937,-72.22934 -54.95937,-72.22934z"/></g><g><path d="M139.96634,179.47643h198.39124c0,0 5.59175,40.21466 -55.17514,72.48059c-62.52312,30.49472 -143.2161,27.56023 -143.2161,27.56023z"/><path d="M139.94984,179.4735v-100.05627c0,0 79.76213,-2.82013 143.75868,27.82692c60.48353,31.53279 54.66321,72.22934 54.66321,72.22934z"/></g></g></g></svg>