<svg version="1.1" xmlns="http://www.w3.org/2000/svg" xmlns:xlink="http://www.w3.org/1999/xlink" width="188.30469" height="122.85876" viewBox="0,0,188.30469,122.85876"><g transform="translate(-146.10004,-104.69667)"><g data-paper-data="{&quot;isPaintingLayer&quot;:true}" fill-rule="nonzero" stroke-linecap="butt" stroke-linejoin="miter" stroke-miterlimit="10" stroke-dasharray="" stroke-dashoffset="0" style="mix-blend-mode: normal"><path d="M185.27194,227.55543c-1.58188,0 -2.86425,-1.79086 -2.86425,-4v-87.5471c0,-2.20914 1.28236,-4 2.86425,-4h109.23801c1.58188,0 2.86424,1.79086 2.86424,4v87.5471c0,2.20914 -1.28236,4 -2.86424,4z" fill="#59ad0d" stroke="#000000" stroke-width="0"/><text transform="translate(146.35004,126.44667) scale(0.5,0.5)" font-size="40" xml:space="preserve" fill="#ffffff" fill-rule="nonzero" stroke="none" stroke-width="1" stroke-linecap="butt" stroke-linejoin="miter" stroke-miterlimit="10" stroke-dasharray="" stroke-dashoffset="0" font-family="Sans Serif" font-weight="normal" text-anchor="start" style="mix-blend-mode: normal"><tspan x="0" dy="0">Fehler beim Upload</tspan></text><g fill="#000000" stroke="none" stroke-width="1"><path d="M227.62925,166.55832v34.7643c0,3.17881 -2.58911,5.76624 -5.76624,5.76624h-29.68856c-3.18073,0 -5.76624,-2.58742 -5.76624,-5.76624v-42.64521c0,-3.17893 2.58551,-5.76624 5.76624,-5.76624h21.75821zM224.09455,201.32273l-0.08147,-33.36529l-7.40267,0.02123c-2.20672,0 -3.9989,-1.7923 -3.9989,-4.00069v-7.55324l-20.43707,0.02123c-1.2327,0 -2.23514,1.00064 -2.23514,2.23143v42.64521c0,1.23258 1.00244,2.23324 2.23514,2.23324h29.68857c1.2327,0 2.23154,-1.00065 2.23154,-2.23312z"/><path d="M214.39651,181.26017c0.17361,0.42139 0.07788,0.90851 -0.24621,1.23359l-6.33302,6.33034c-0.44094,0.44274 -1.1582,0.44274 -1.60093,0l-6.32943,-6.33034c-0.32587,-0.32509 -0.42139,-0.81221 -0.24621,-1.23359c0.17709,-0.42329 0.58814,-0.6995 1.04492,-0.6995h2.76834v-8.20949c0,-0.83311 0.67466,-1.508 1.5053,-1.508h4.11565c0.83231,0 1.50699,0.67489 1.50699,1.508v8.20949h2.76811c0.45701,0 0.86963,0.27621 1.04649,0.6995z"/></g><path d="M294.42113,166.55832v34.7643c0,3.17882 -2.5891,5.76624 -5.76623,5.76624h-29.68857c-3.18072,0 -5.76623,-2.58742 -5.76623,-5.76624v-42.64521c0,-3.17893 2.58551,-5.76624 5.76624,-5.76624h21.75821zM290.88644,201.32273l-0.08148,-33.36529l-7.40267,0.02123c-2.2067,0 -3.99889,-1.7923 -3.99889,-4.00069v-7.55324l-20.43707,0.02124c-1.23269,0 -2.23514,1.00065 -2.23514,2.23143v42.64521c0,1.23258 1.00245,2.23323 2.23514,2.23323h29.68857c1.23269,0 2.23154,-1.00065 2.23154,-2.23312z" fill="#000000" stroke="none" stroke-width="1"/><path d="M266.43151,178.73916c-0.17361,-0.42139 -0.07788,-0.90851 0.2462,-1.2336l6.33302,-6.33033c0.44094,-0.44273 1.15819,-0.44273 1.60093,0l6.32943,6.33032c0.32587,0.32509 0.42139,0.81221 0.24621,1.2336c-0.17709,0.42329 -0.58813,0.6995 -1.04492,0.6995h-2.76833v8.20949c0,0.83311 -0.67466,1.508 -1.50529,1.508h-4.11564c-0.83233,0 -1.50699,-0.67489 -1.50699,-1.508v-8.20948h-2.7681c-0.45701,0 -0.86963,-0.27621 -1.04649,-0.6995z" fill="#000000" stroke="none" stroke-width="1"/></g></g></svg>