<svg version="1.1" xmlns="http://www.w3.org/2000/svg" xmlns:xlink="http://www.w3.org/1999/xlink" width="160.55402" height="95.54709" viewBox="0,0,160.55402,95.54709"><g transform="translate(-159.61393,-132.00833)"><g data-paper-data="{&quot;isPaintingLayer&quot;:true}" fill-rule="nonzero" stroke-linecap="butt" stroke-linejoin="miter" stroke-miterlimit="10" stroke-dasharray="" stroke-dashoffset="0" style="mix-blend-mode: normal"><path d="M163.61393,227.55543c-2.20914,0 -4,-1.79086 -4,-4v-87.54709c0,-2.20914 1.79086,-4 4,-4h152.55402c2.20914,0 4,1.79086 4,4v87.54709c0,2.20914 -1.79086,4 -4,4z" fill="#59ad0d" stroke="#000000" stroke-width="0"/><path d="M250.2066,144.89719c1.57094,0 2.72225,1.2735 2.72225,2.84445v6.04113c0,1.57094 -1.2735,2.84445 -2.84445,2.84445h-33.21695v33.30712c0,1.57094 -1.2735,2.72225 -2.84445,2.72225h-6.04113c-1.57094,0 -2.84445,-1.2735 -2.84445,-2.84445v-42.08652c0,-1.57094 1.2735,-2.84444 2.84445,-2.84444h6.04113c0.10258,0 0.20388,0.00542 0.30365,0.01601z" fill="#ffffff" stroke="none" stroke-width="0"/><path d="M229.7934,215.10283c-1.57094,0 -2.72225,-1.2735 -2.72225,-2.84445v-6.04113c0,-1.57094 1.2735,-2.84445 2.84445,-2.84445h33.21695v-33.30711c0,-1.57094 1.2735,-2.72226 2.84445,-2.72226h6.04113c1.57094,0 2.84445,1.2735 2.84445,2.84445v42.08652c0,1.57094 -1.2735,2.84445 -2.84445,2.84445h-6.04113c-0.10258,0 -0.20389,-0.00543 -0.30365,-0.01602z" fill="#ffffff" stroke="none" stroke-width="0"/><path d="" fill="none" stroke="#000000" stroke-width="0.5"/></g></g></svg>