<svg version="1.1" xmlns="http://www.w3.org/2000/svg" xmlns:xlink="http://www.w3.org/1999/xlink" width="159.46789" height="95.5471" viewBox="0,0,159.46789,95.5471"><g transform="translate(-160.157,-132.00833)"><g data-paper-data="{&quot;isPaintingLayer&quot;:true}" fill-rule="nonzero" stroke-miterlimit="10" stroke-dasharray="" stroke-dashoffset="0" style="mix-blend-mode: normal"><path d="M164.12995,227.55543c-2.1942,0 -3.97294,-1.79086 -3.97294,-4v-87.5471c0,-2.20914 1.77875,-4 3.97294,-4h151.522c2.19419,0 3.97294,1.79086 3.97294,4v87.5471c0,2.20914 -1.77875,4 -3.97294,4z" fill="#59ad0d" stroke="#000000" stroke-width="0" stroke-linecap="butt" stroke-linejoin="miter"/><path d="M211.97489,207.80954c-1.1906,0 -2.15578,0 -2.15578,0v-55.64061c0,0 0.96517,0 2.15578,0h56.05021c1.1906,0 2.15578,0 2.15578,0v55.64061c0,0 -0.96517,0 -2.15578,0z" fill="#ffffff" stroke="#7c87a5" stroke-width="1" stroke-linecap="round" stroke-linejoin="round"/><path d="M216.28648,214.49244c-1.1906,0 -2.15578,0 -2.15578,0v-68.98488c0,0 0.96517,0 2.15578,0h47.4271c1.1906,0 2.15578,0 2.15578,0v68.98488c0,0 -0.96517,0 -2.15578,0z" fill="#e6e7e8" stroke="#7c87a5" stroke-width="1" stroke-linecap="round" stroke-linejoin="round"/><path d="M214.13069,203.71356v-28.02511h51.73866v28.02511z" fill="#ffffff" stroke="#7c87a5" stroke-width="1" stroke-linecap="round" stroke-linejoin="round"/><path d="M240.00003,167.06534v8.62311" fill="#e6e7e8" stroke="#7c87a5" stroke-width="1" stroke-linecap="round" stroke-linejoin="round"/><path d="M220.59801,171.3769c-1.1906,0 -2.15578,0 -2.15578,0v-21.55777c0,0 0.96517,0 2.15578,0h38.80399c1.1906,0 2.15578,0 2.15578,0v21.55777c0,0 -0.96517,0 -2.15578,0z" fill="#414757" stroke="none" stroke-width="1" stroke-linecap="butt" stroke-linejoin="miter"/><path d="M238.92214,192.13704c-0.5953,0 -1.07789,0 -1.07789,0v-4.31155c0,0 0.48259,0 1.07789,0h2.15578c0.5953,0 1.07789,0 1.07789,0v4.31155c0,0 -0.48259,0 -1.07789,0z" fill="#7c87a5" stroke="none" stroke-width="1" stroke-linecap="butt" stroke-linejoin="miter" opacity="0.5"/><path d="M228.2726,187.82548h3.23367c0.5953,0 1.07789,0.48259 1.07789,1.07789v2.15578c0,0.5953 -0.48259,1.07789 -1.07789,1.07789h-3.23367c-1.1906,0 -2.15578,-0.96517 -2.15578,-2.15578c0,-1.1906 0.96517,-2.15578 2.15578,-2.15578z" fill="#7c87a5" stroke="none" stroke-width="1" stroke-linecap="butt" stroke-linejoin="miter" opacity="0.5"/><path d="M251.7059,192.13704h-3.25522c-0.5953,0 -1.07789,-0.48259 -1.07789,-1.07789v-2.15578c0,-0.5953 0.48259,-1.07789 1.07789,-1.07789h3.23367c1.1906,0 2.15578,0.96517 2.15578,2.15578c0.00005,1.18224 -0.95205,2.14395 -2.13422,2.15578z" fill="#7c87a5" stroke="none" stroke-width="1" stroke-linecap="butt" stroke-linejoin="miter" opacity="0.5"/><path d="M226.48331,182.15578h-6.96316c-0.5953,0 -1.07789,-0.48259 -1.07789,-1.07789v-5.38944h12.93466l-3.98819,5.99306c-0.20551,0.2973 -0.54401,0.47461 -0.90543,0.47427z" fill="#7c87a5" stroke="none" stroke-width="1" stroke-linecap="butt" stroke-linejoin="miter" opacity="0.5"/><path d="M247.8686,185.06609l-1.07789,1.07789c-0.21053,0.2028 -0.3276,0.48379 -0.32337,0.77608v0.62518c0,0.5953 -0.48259,1.07789 -1.07789,1.07789h-1.07789c-0.5953,0 -1.07789,-0.48259 -1.07789,-1.07789c0,-0.5953 -0.48259,-1.07789 -1.07789,-1.07789h-4.31155c-0.5953,0 -1.07789,0.48259 -1.07789,1.07789c0,0.5953 -0.48259,1.07789 -1.07789,1.07789h-1.07789c-0.5953,0 -1.07789,-0.48259 -1.07789,-1.07789v-0.62518c0.00424,-0.29229 -0.11283,-0.57328 -0.32337,-0.77608l-1.07789,-1.07789c-0.41345,-0.42645 -0.41345,-1.10416 0,-1.5306l3.25522,-3.21211c0.19462,-0.20941 0.46866,-0.32685 0.75452,-0.32337h7.71768c0.28587,-0.00348 0.5599,0.11395 0.75452,0.32337l3.25522,3.21211c0.41345,0.42645 0.41345,1.10416 0,1.5306z" fill="#7c87a5" stroke="none" stroke-width="1" stroke-linecap="butt" stroke-linejoin="miter" opacity="0.5"/><path d="M232.13141,194.98266l1.07789,-1.07789c0.21053,-0.2028 0.3276,-0.48379 0.32337,-0.77608v-0.62518c0,-0.5953 0.48259,-1.07789 1.07789,-1.07789h1.07789c0.5953,0 1.07789,0.48259 1.07789,1.07789c0,0.5953 0.48259,1.07789 1.07789,1.07789h4.31155c0.5953,0 1.07789,-0.48259 1.07789,-1.07789c0,-0.5953 0.48259,-1.07789 1.07789,-1.07789h1.07789c0.5953,0 1.07789,0.48259 1.07789,1.07789v0.62518c-0.00424,0.29229 0.11283,0.57328 0.32337,0.77608l1.07789,1.07789c0.41083,0.41913 0.41083,1.08992 0,1.50904l-3.25522,3.23367c-0.19462,0.20941 -0.46866,0.32685 -0.75452,0.32337h-7.71768c-0.28587,0.00348 -0.5599,-0.11395 -0.75452,-0.32337l-3.25522,-3.23367c-0.41083,-0.41913 -0.41083,-1.08992 0,-1.50904z" fill="#7c87a5" stroke="none" stroke-width="1" stroke-linecap="butt" stroke-linejoin="miter" opacity="0.5"/><path d="M255.09047,203.71356h10.77889v8.62311c0,1.1906 -0.96517,2.15578 -2.15578,2.15578h-8.62311z" fill="#f15a29" stroke="#cc4c23" stroke-width="1" stroke-linecap="round" stroke-linejoin="round"/></g></g></svg>